<svg width="17" height="17" viewBox="0 0 17 17" fill="none" xmlns="http://www.w3.org/2000/svg">
<path fill-rule="evenodd" clip-rule="evenodd" d="M16.407 16.9997H0.593023C0.265506 16.9997 0 16.7335 0 16.4051C0 16.0767 0.265506 15.8105 0.593023 15.8105H16.407C16.7345 15.8105 17 16.0767 17 16.4051C17 16.7335 16.7345 16.9997 16.407 16.9997Z" fill="#D3D3D3"/>
<path fill-rule="evenodd" clip-rule="evenodd" d="M4.54648 7.53083V11.8909H2.96509V7.53083H4.54648ZM4.54649 6.3418H2.9651C2.31006 6.3418 1.77905 6.87418 1.77905 7.53092V11.891C1.77905 12.5478 2.31006 13.0801 2.9651 13.0801H4.54649C5.20153 13.0801 5.73254 12.5478 5.73254 11.891V7.53092C5.73254 6.87418 5.20153 6.3418 4.54649 6.3418V6.3418Z" fill="#B7BDCD"/>
<path fill-rule="evenodd" clip-rule="evenodd" d="M9.29062 4.75656V11.8913H7.70923V4.75656H9.29062ZM9.29064 3.56738H7.70924C7.0542 3.56738 6.52319 4.09977 6.52319 4.7565V11.8912C6.52319 12.548 7.0542 13.0803 7.70924 13.0803H9.29064C9.94567 13.0803 10.4767 12.548 10.4767 11.8912V4.7565C10.4767 4.09977 9.94567 3.56738 9.29064 3.56738Z" fill="#B7BDCD"/>
<path fill-rule="evenodd" clip-rule="evenodd" d="M14.0349 1.18914V11.8912H12.4535V1.18914H14.0349ZM14.0349 0H12.4535C11.7985 0 11.2675 0.532387 11.2675 1.18912V11.8912C11.2675 12.5479 11.7985 13.0803 12.4535 13.0803H14.0349C14.6899 13.0803 15.2209 12.5479 15.2209 11.8912V1.18912C15.2209 0.532387 14.6899 0 14.0349 0Z" fill="#B7BDCD"/>
</svg>
