<svg width="278" height="209" viewBox="0 0 278 209" fill="none" xmlns="http://www.w3.org/2000/svg">
<path d="M278 182.035H0V182.174H278V182.035Z" fill="#EBEBEB"/>
<path d="M250.145 190.98H231.73V191.119H250.145V190.98Z" fill="#EBEBEB"/>
<path d="M184.158 192.494H179.327V192.633H184.158V192.494Z" fill="#EBEBEB"/>
<path d="M231.174 185.82H220.504V185.959H231.174V185.82Z" fill="#EBEBEB"/>
<path d="M53.1809 186.756H29.1672V186.895H53.1809V186.756Z" fill="#EBEBEB"/>
<path d="M61.6557 186.756H58.1362V186.895H61.6557V186.756Z" fill="#EBEBEB"/>
<path d="M125.184 189.102H73.0981V189.241H125.184V189.102Z" fill="#EBEBEB"/>
<path d="M131.773 157.237H24.4146C23.5735 157.235 22.7674 156.9 22.1733 156.305C21.5791 155.71 21.2454 154.903 21.2454 154.062V3.14696C21.2527 2.31075 21.5896 1.5112 22.183 0.921969C22.7764 0.332743 23.5783 0.00143247 24.4146 0H131.773C132.615 0 133.422 0.334483 134.018 0.929866C134.613 1.52525 134.947 2.33276 134.947 3.17476V154.062C134.947 154.904 134.613 155.712 134.018 156.307C133.422 156.902 132.615 157.237 131.773 157.237ZM24.4146 0.1112C23.6104 0.112673 22.8397 0.43316 22.2715 1.00232C21.7034 1.57147 21.3844 2.34279 21.3844 3.14696V154.062C21.3844 154.866 21.7034 155.638 22.2715 156.207C22.8397 156.776 23.6104 157.096 24.4146 157.098H131.773C132.577 157.096 133.349 156.776 133.918 156.207C134.487 155.638 134.807 154.867 134.808 154.062V3.14696C134.807 2.34228 134.487 1.57097 133.918 1.00198C133.349 0.43298 132.577 0.11267 131.773 0.1112H24.4146Z" fill="#EBEBEB"/>
<path d="M252.041 157.237H144.678C143.836 157.235 143.029 156.9 142.434 156.305C141.839 155.71 141.504 154.904 141.503 154.062V3.14696C141.512 2.31024 141.85 1.51069 142.444 0.921622C143.038 0.332548 143.841 0.00141685 144.678 0H252.041C252.877 0.0028937 253.677 0.334851 254.269 0.923921C254.861 1.51299 255.198 2.31171 255.205 3.14696V154.062C255.205 154.902 254.872 155.708 254.279 156.303C253.686 156.898 252.881 157.234 252.041 157.237ZM144.678 0.1112C143.873 0.11267 143.102 0.43298 142.533 1.00198C141.964 1.57097 141.643 2.34228 141.642 3.14696V154.062C141.643 154.867 141.964 155.638 142.533 156.207C143.102 156.776 143.873 157.096 144.678 157.098H252.041C252.846 157.096 253.617 156.776 254.186 156.207C254.755 155.638 255.076 154.867 255.077 154.062V3.14696C255.076 2.34228 254.755 1.57097 254.186 1.00198C253.617 0.43298 252.846 0.11267 252.041 0.1112H144.678Z" fill="#EBEBEB"/>
<path d="M106.585 177.992H118.983L112.473 124.822C112.315 123.711 111.769 122.692 110.931 121.946C110.093 121.199 109.018 120.774 107.897 120.746H53.709L61.6542 178.014L106.585 177.992Z" fill="#F5F5F5"/>
<path d="M67.1985 177.993H54.7774L48.25 124.823C48.169 124.312 48.2015 123.789 48.3453 123.292C48.489 122.795 48.7404 122.336 49.0816 121.947C49.4229 121.558 49.8456 121.248 50.3197 121.041C50.7938 120.834 51.3078 120.734 51.8251 120.747H56.0896C57.2114 120.775 58.2872 121.199 59.1252 121.946C59.9632 122.692 60.5091 123.712 60.6655 124.823L67.1985 177.993Z" fill="#F0F0F0"/>
<path d="M71.774 177.921L69.55 152.2C69.5013 151.642 69.263 151.116 68.8746 150.712C68.4863 150.307 67.9712 150.048 67.415 149.976L66.492 149.86C65.7476 149.765 65.0581 149.418 64.5382 148.877C64.0183 148.335 63.6993 147.633 63.6342 146.885L63.2228 142.192C63.1835 141.738 63.239 141.281 63.3857 140.849C63.5323 140.418 63.767 140.021 64.0749 139.685C64.3828 139.349 64.7571 139.081 65.1741 138.897C65.5911 138.713 66.0418 138.618 66.4976 138.617H45.7143C45.2585 138.618 44.8079 138.713 44.3908 138.897C43.9738 139.081 43.5995 139.349 43.2916 139.685C42.9838 140.021 42.7491 140.418 42.6024 140.849C42.4557 141.281 42.4002 141.738 42.4395 142.192L42.8509 146.885C42.916 147.633 43.235 148.335 43.7549 148.877C44.2749 149.418 44.9643 149.765 45.7088 149.86L46.6373 149.976C47.1925 150.049 47.7063 150.309 48.0935 150.713C48.4808 151.118 48.7183 151.642 48.7668 152.2L51.0186 177.921C51.0925 178.829 51.5052 179.676 52.1746 180.294C52.8441 180.912 53.7215 181.256 54.6326 181.257H75.388C74.4766 181.257 73.5985 180.914 72.9288 180.295C72.259 179.677 71.8467 178.829 71.774 177.921Z" fill="#E6E6E6"/>
<path d="M128.887 145.772C129.058 143.825 129.951 142.012 131.392 140.69C132.833 139.369 134.716 138.635 136.671 138.633H118.601C116.646 138.635 114.763 139.369 113.322 140.69C111.881 142.012 110.988 143.825 110.817 145.772L109.038 166.16H127.102L128.887 145.772Z" fill="#E6E6E6"/>
<path d="M144.704 138.633H136.676C134.721 138.635 132.838 139.369 131.397 140.69C129.956 142.012 129.062 143.825 128.892 145.772L127.107 166.16H84.0668L82.2876 145.772C82.1168 143.825 81.223 142.012 79.7823 140.69C78.3416 139.369 76.4585 138.635 74.5036 138.633H66.4695C66.0137 138.633 65.563 138.729 65.146 138.913C64.7289 139.096 64.3546 139.365 64.0467 139.701C63.7389 140.037 63.5042 140.433 63.3575 140.865C63.2108 141.297 63.1553 141.754 63.1946 142.208L63.606 146.901C63.6711 147.648 63.9901 148.351 64.5101 148.892C65.03 149.433 65.7195 149.78 66.4639 149.875L67.3868 149.992C67.9431 150.063 68.4581 150.323 68.8465 150.727C69.2348 151.132 69.4732 151.657 69.5219 152.216L71.7459 177.936C71.8186 178.845 72.2309 179.693 72.9006 180.311C73.5704 180.929 74.4484 181.273 75.3599 181.272H135.786C136.697 181.271 137.574 180.928 138.244 180.31C138.913 179.692 139.326 178.845 139.4 177.936L141.652 152.216C141.7 151.658 141.938 151.133 142.325 150.729C142.712 150.325 143.226 150.065 143.781 149.992L144.71 149.875C145.454 149.78 146.144 149.433 146.664 148.892C147.184 148.351 147.503 147.648 147.568 146.901L147.979 142.213C148.019 141.759 147.964 141.301 147.818 140.869C147.672 140.437 147.437 140.04 147.129 139.703C146.821 139.366 146.447 139.097 146.029 138.913C145.612 138.729 145.16 138.633 144.704 138.633Z" fill="#F0F0F0"/>
<path d="M239.785 75.1602H156.013V181.245H239.785V75.1602Z" fill="#F0F0F0"/>
<path d="M236.828 79.0234H158.977V101.708H236.828V79.0234Z" fill="#E0E0E0"/>
<path d="M163.397 82.6992H158.977V101.709H163.397V82.6992Z" fill="#EBEBEB"/>
<path d="M184.782 82.6992H180.362V101.709H184.782V82.6992Z" fill="#EBEBEB"/>
<path d="M209.054 82.2179L204.698 82.9688L207.927 101.702L212.283 100.951L209.054 82.2179Z" fill="#EBEBEB"/>
<path d="M168.875 85.207H164.455V101.715H168.875V85.207Z" fill="#EBEBEB"/>
<path d="M179.038 85.207H174.618V101.715H179.038V85.207Z" fill="#EBEBEB"/>
<path d="M204.697 85.207H200.277V101.715H204.697V85.207Z" fill="#EBEBEB"/>
<path d="M190.593 84.6309L186.279 85.5898L189.86 101.704L194.175 100.745L190.593 84.6309Z" fill="#EBEBEB"/>
<path d="M172.704 81.7539H170.491V101.709H172.704V81.7539Z" fill="#EBEBEB"/>
<path d="M199.01 81.7539H196.798V101.709H199.01V81.7539Z" fill="#EBEBEB"/>
<path d="M158.971 127.992L236.823 127.992V105.307L158.971 105.307V127.992Z" fill="#E0E0E0"/>
<path d="M232.408 127.984H236.829V108.975H232.408V127.984Z" fill="#EBEBEB"/>
<path d="M211.024 127.984H215.444V108.975H211.024V127.984Z" fill="#EBEBEB"/>
<path d="M183.517 127.235L187.873 127.986L191.102 109.253L186.746 108.502L183.517 127.235Z" fill="#EBEBEB"/>
<path d="M226.925 127.984H231.345V111.477H226.925V127.984Z" fill="#EBEBEB"/>
<path d="M216.761 127.984H221.182V111.477H216.761V127.984Z" fill="#EBEBEB"/>
<path d="M191.101 127.984H195.521V111.477H191.101V127.984Z" fill="#EBEBEB"/>
<path d="M201.64 127.022L205.955 127.98L209.537 111.866L205.222 110.907L201.64 127.022Z" fill="#EBEBEB"/>
<path d="M223.101 127.992H225.313V108.037H223.101V127.992Z" fill="#EBEBEB"/>
<path d="M196.791 127.992H199.003V108.037H196.791V127.992Z" fill="#EBEBEB"/>
<path d="M163.397 108.977H158.977V127.986H163.397V108.977Z" fill="#EBEBEB"/>
<path d="M168.875 111.484H164.455V127.992H168.875V111.484Z" fill="#EBEBEB"/>
<path d="M179.038 111.484H174.618V127.992H179.038V111.484Z" fill="#EBEBEB"/>
<path d="M172.704 108.031H170.491V127.986H172.704V108.031Z" fill="#EBEBEB"/>
<path d="M236.828 131.576H158.977V154.261H236.828V131.576Z" fill="#E0E0E0"/>
<path d="M208.077 135.252H203.656V154.262H208.077V135.252Z" fill="#EBEBEB"/>
<path d="M232.361 134.769L228.005 135.52L231.234 154.253L235.59 153.502L232.361 134.769Z" fill="#EBEBEB"/>
<path d="M192.176 137.762H187.756V154.269H192.176V137.762Z" fill="#EBEBEB"/>
<path d="M202.339 137.762H197.919V154.269H202.339V137.762Z" fill="#EBEBEB"/>
<path d="M228 137.762H223.579V154.269H228V137.762Z" fill="#EBEBEB"/>
<path d="M213.895 137.182L209.58 138.141L213.161 154.255L217.476 153.296L213.895 137.182Z" fill="#EBEBEB"/>
<path d="M196 134.307H193.787V154.261H196V134.307Z" fill="#EBEBEB"/>
<path d="M222.305 134.307H220.093V154.261H222.305V134.307Z" fill="#EBEBEB"/>
<path d="M181.481 134.773L177.125 135.523L180.355 154.257L184.711 153.506L181.481 134.773Z" fill="#EBEBEB"/>
<path d="M177.118 137.762H172.698V154.269H177.118V137.762Z" fill="#EBEBEB"/>
<path d="M163.015 137.186L158.7 138.145L162.281 154.259L166.596 153.3L163.015 137.186Z" fill="#EBEBEB"/>
<path d="M171.427 134.307H169.214V154.261H171.427V134.307Z" fill="#EBEBEB"/>
<path d="M168.879 75.161V73.5876H171.425C169.851 68.7639 169.529 63.6189 170.491 58.6367C170.491 58.6367 170.452 65.1642 172.976 65.2086C176.829 65.2809 177.119 58.6367 177.119 58.6367C177.119 58.6367 178.047 68.1443 174.589 73.5876H177.235V75.161H168.879Z" fill="#E0E0E0"/>
<path d="M176.046 62.9955C176.046 63.4353 175.916 63.8653 175.671 64.2311C175.427 64.5968 175.08 64.8819 174.673 65.0502C174.267 65.2185 173.82 65.2626 173.388 65.1768C172.957 65.0909 172.561 64.8791 172.25 64.5681C171.939 64.2571 171.727 63.8608 171.641 63.4294C171.555 62.998 171.599 62.5508 171.767 62.1444C171.936 61.738 172.221 61.3907 172.587 61.1463C172.952 60.9019 173.382 60.7715 173.822 60.7715C174.412 60.7715 174.978 61.0058 175.395 61.4229C175.812 61.84 176.046 62.4056 176.046 62.9955Z" fill="#E0E0E0"/>
<path d="M185.981 75.1603V74.2429L188.678 72.9863L187.333 71.6741L190.669 59.8313V67.2261C190.669 67.2261 190.207 67.2262 190.207 68.2881C190.207 69.3501 191.73 69.1054 191.73 68.227C191.73 67.3485 191.23 67.2261 191.23 67.2261V59.4922L194.299 71.2127L192.931 72.9863L195.711 74.2429V75.1603H185.981Z" fill="#E0E0E0"/>
<path d="M202.489 75.1611V74.4327L204.969 73.8656V62.9958L207.104 60.0156L208.916 62.3508V67.3381L209.856 66.0315L211.173 65.5311L212.113 67.5883L210.112 73.8656L212.113 74.4327V75.1611H202.489Z" fill="#E0E0E0"/>
<path d="M218.969 75.4947L222.016 60.0156H231.346L229.139 68.7949L232.402 75.1611L218.969 75.4947Z" fill="#E0E0E0"/>
<path d="M111.983 37.9141H38.68C38.1395 37.9141 37.7014 38.3522 37.7014 38.8926V39.9323C37.7014 40.4728 38.1395 40.9109 38.68 40.9109H111.983C112.523 40.9109 112.962 40.4728 112.962 39.9323V38.8926C112.962 38.3522 112.523 37.9141 111.983 37.9141Z" fill="#E0E0E0"/>
<path d="M108.492 40.293H42.1721V99.14H108.492V40.293Z" fill="#E6E6E6"/>
<path d="M106.746 41.9062H43.835V97.5619H106.746V41.9062Z" fill="#F0F0F0"/>
<path d="M58.5968 41.9062L43.835 97.4395V71.3465L51.6301 41.9062H58.5968Z" fill="white"/>
<path d="M63.8279 41.9062L48.9327 97.5619H46.553L61.4482 41.9062H63.8279Z" fill="white"/>
<path d="M106.746 77.0234V85.9194L103.732 97.5621H101.353L106.746 77.0234Z" fill="white"/>
<path d="M65.7805 40.9043H64.7185V98.8006H65.7805V40.9043Z" fill="#E6E6E6"/>
<path d="M86.3127 40.9043H85.2507V98.8006H86.3127V40.9043Z" fill="#E6E6E6"/>
<path d="M97.6833 38.8696C97.6833 38.8696 99.2068 58.78 107.98 68.927C107.98 68.927 101.592 94.5474 101.598 103.482L113.474 101.292L109.193 69.0437L111.239 38.8418L97.6833 38.8696Z" fill="#E0E0E0"/>
<path d="M52.9813 38.8705C52.9813 38.8705 51.4579 58.7809 42.6786 68.9445C42.6786 68.9445 49.0726 94.565 49.0671 103.5L37.1909 101.309L41.4721 69.0613L39.426 38.8594L52.9813 38.8705Z" fill="#E0E0E0"/>
<path d="M197.902 38.4641C202.253 38.4641 205.781 34.9367 205.781 30.5856C205.781 26.2344 202.253 22.707 197.902 22.707C193.551 22.707 190.024 26.2344 190.024 30.5856C190.024 34.9367 193.551 38.4641 197.902 38.4641Z" fill="#E0E0E0"/>
<path d="M197.902 37.2863C201.602 37.2863 204.602 34.2867 204.602 30.5865C204.602 26.8863 201.602 23.8867 197.902 23.8867C194.202 23.8867 191.202 26.8863 191.202 30.5865C191.202 34.2867 194.202 37.2863 197.902 37.2863Z" fill="#F0F0F0"/>
<path d="M198.213 25.9922V30.6737L201.321 28.9167" fill="#F0F0F0"/>
<path d="M198.214 31.231C198.116 31.23 198.02 31.2031 197.936 31.1532C197.852 31.1047 197.782 31.035 197.733 30.9511C197.684 30.8672 197.658 30.772 197.658 30.675V25.9935C197.658 25.846 197.716 25.7046 197.821 25.6003C197.925 25.4961 198.066 25.4375 198.214 25.4375C198.361 25.4375 198.503 25.4961 198.607 25.6003C198.711 25.7046 198.77 25.846 198.77 25.9935V29.7187L201.044 28.4343C201.108 28.3978 201.178 28.3743 201.251 28.3651C201.324 28.356 201.398 28.3614 201.469 28.381C201.54 28.4007 201.606 28.4342 201.664 28.4796C201.721 28.525 201.77 28.5814 201.805 28.6456C201.878 28.774 201.896 28.9256 201.856 29.0674C201.816 29.2091 201.722 29.3294 201.594 29.4018L198.492 31.1365C198.408 31.1895 198.313 31.2219 198.214 31.231Z" fill="#E0E0E0"/>
<path d="M145.336 207.144C204.873 207.144 253.138 204.327 253.138 200.851C253.138 197.375 204.873 194.557 145.336 194.557C85.7977 194.557 37.5327 197.375 37.5327 200.851C37.5327 204.327 85.7977 207.144 145.336 207.144Z" fill="#F5F5F5"/>
<path d="M80.1902 172.316C82.1028 176.948 106.261 175.041 106.261 175.041C106.261 175.041 96.62 165.205 88.369 164.577C80.1179 163.948 80.1902 172.316 80.1902 172.316Z" fill="#263238"/>
<path opacity="0.5" d="M80.1902 172.316C82.1028 176.948 106.261 175.041 106.261 175.041C106.261 175.041 96.62 165.205 88.369 164.577C80.1179 163.948 80.1902 172.316 80.1902 172.316Z" fill="white"/>
<path opacity="0.2" d="M80.1902 172.316C82.1028 176.948 106.261 175.041 106.261 175.041C106.261 175.041 96.62 165.205 88.369 164.577C80.1179 163.948 80.1902 172.316 80.1902 172.316Z" fill="black"/>
<path d="M92.3941 175.041C92.3941 175.041 92.0105 175.897 117.97 175.897H190.372V173.984L92.3941 175.041Z" fill="#263238"/>
<path opacity="0.6" d="M92.3941 175.041C92.3941 175.041 92.0105 175.897 117.97 175.897H190.372V173.984L92.3941 175.041Z" fill="white"/>
<path d="M191.062 40.4492H92.3938V175.035H191.062V40.4492Z" fill="#263238"/>
<path opacity="0.8" d="M191.062 40.4492H92.3938V175.035H191.062V40.4492Z" fill="white"/>
<path d="M92.3946 40.4495C92.3946 40.4495 90.5543 35.629 84.5328 36.3462C78.5113 37.0635 79.1451 41.4169 79.1451 41.4169L80.1904 172.316C80.1904 172.316 80.9633 168.024 87.2127 169.981C91.8386 171.426 92.3946 175.04 92.3946 175.04C92.3946 175.04 94.3128 54.3662 92.3946 40.4495Z" fill="#263238"/>
<path opacity="0.7" d="M92.3946 40.4495C92.3946 40.4495 90.5543 35.629 84.5328 36.3462C78.5113 37.0635 79.1451 41.4169 79.1451 41.4169L80.1904 172.316C80.1904 172.316 80.9633 168.024 87.2127 169.981C91.8386 171.426 92.3946 175.04 92.3946 175.04C92.3946 175.04 94.3128 54.3662 92.3946 40.4495Z" fill="white"/>
<path d="M101.351 173.479L98.7458 182.031L113.309 186.467L115.914 177.914L101.351 173.479Z" fill="#263238"/>
<path opacity="0.1" d="M101.351 173.479L98.7458 182.031L113.309 186.467L115.914 177.914L101.351 173.479Z" fill="white"/>
<path opacity="0.3" d="M99.3358 180.079L98.7412 182.031L113.304 186.467L113.898 184.515L99.3358 180.079Z" fill="black"/>
<path d="M93.3726 188.455C104.236 177.591 104.236 159.979 93.3726 149.116C82.5095 138.253 64.897 138.253 54.0339 149.116C43.1708 159.979 43.1708 177.591 54.0339 188.455C64.897 199.318 82.5095 199.318 93.3726 188.455Z" fill="#263238"/>
<path opacity="0.8" d="M93.3726 188.455C104.236 177.591 104.236 159.979 93.3726 149.116C82.5095 138.253 64.897 138.253 54.0339 149.116C43.1708 159.979 43.1708 177.591 54.0339 188.455C64.897 199.318 82.5095 199.318 93.3726 188.455Z" fill="white"/>
<path d="M44.6 162.284C42.8764 167.936 42.8679 173.972 44.5755 179.628C46.2831 185.285 49.6301 190.308 54.193 194.062C58.7559 197.816 64.3298 200.132 70.2095 200.718C76.0891 201.304 82.0103 200.132 87.224 197.352C92.4377 194.571 96.7096 190.307 99.4992 185.098C102.289 179.889 103.471 173.97 102.896 168.09C102.321 162.209 100.014 156.631 96.2685 152.061C92.5226 147.492 87.5056 144.136 81.852 142.418C74.2777 140.115 66.099 140.915 59.1136 144.64C52.1282 148.365 46.9079 154.711 44.6 162.284ZM98.3541 178.658C96.8371 183.639 93.8772 188.059 89.8486 191.358C85.8199 194.656 80.9035 196.687 75.7211 197.191C70.5386 197.696 65.3229 196.652 60.7335 194.193C56.1441 191.733 52.3871 187.968 49.9377 183.373C47.4883 178.778 46.4564 173.56 46.9725 168.379C47.4887 163.198 49.5297 158.286 52.8374 154.264C56.1452 150.243 60.5711 147.293 65.5556 145.787C70.54 144.281 75.859 144.287 80.8401 145.804C87.5192 147.839 93.1167 152.443 96.4012 158.604C99.6857 164.765 100.388 171.979 98.3541 178.658Z" fill="#263238"/>
<path opacity="0.1" d="M44.6 162.284C42.8764 167.936 42.8679 173.972 44.5755 179.628C46.2831 185.285 49.6301 190.308 54.193 194.062C58.7559 197.816 64.3298 200.132 70.2095 200.718C76.0891 201.304 82.0103 200.132 87.224 197.352C92.4377 194.571 96.7096 190.307 99.4992 185.098C102.289 179.889 103.471 173.97 102.896 168.09C102.321 162.209 100.014 156.631 96.2685 152.061C92.5226 147.492 87.5056 144.136 81.852 142.418C74.2777 140.115 66.099 140.915 59.1136 144.64C52.1282 148.365 46.9079 154.711 44.6 162.284ZM98.3541 178.658C96.8371 183.639 93.8772 188.059 89.8486 191.358C85.8199 194.656 80.9035 196.687 75.7211 197.191C70.5386 197.696 65.3229 196.652 60.7335 194.193C56.1441 191.733 52.3871 187.968 49.9377 183.373C47.4883 178.778 46.4564 173.56 46.9725 168.379C47.4887 163.198 49.5297 158.286 52.8374 154.264C56.1452 150.243 60.5711 147.293 65.5556 145.787C70.54 144.281 75.859 144.287 80.8401 145.804C87.5192 147.839 93.1167 152.443 96.4012 158.604C99.6857 164.765 100.388 171.979 98.3541 178.658Z" fill="white"/>
<path d="M45.3891 159.687C43.6655 165.339 43.657 171.375 45.3645 177.031C47.0721 182.688 50.4191 187.711 54.9821 191.465C59.545 195.219 65.1189 197.535 70.9985 198.121C76.8782 198.706 82.7994 197.535 88.0131 194.755C93.2268 191.974 97.4986 187.71 100.288 182.501C103.078 177.292 104.26 171.373 103.685 165.493C103.11 159.612 100.803 154.034 97.0576 149.464C93.3117 144.895 88.2946 141.539 82.6411 139.821C75.0668 137.52 66.8887 138.32 59.9037 142.045C52.9188 145.77 47.6982 152.115 45.3891 159.687ZM99.1431 176.061C97.6262 181.042 94.6663 185.462 90.6376 188.761C86.609 192.059 81.6926 194.09 76.5101 194.594C71.3277 195.099 66.112 194.055 61.5226 191.596C56.9332 189.136 53.1762 185.371 50.7268 180.776C48.2773 176.181 47.2454 170.963 47.7616 165.782C48.2777 160.601 50.3187 155.689 53.6265 151.667C56.9342 147.646 61.3602 144.696 66.3446 143.19C71.3291 141.684 76.6481 141.69 81.6291 143.207C88.3083 145.242 93.9058 149.846 97.1903 156.007C100.475 162.168 101.177 169.382 99.1431 176.061Z" fill="#263238"/>
<path opacity="0.3" d="M45.3891 159.687C43.6655 165.339 43.657 171.375 45.3645 177.031C47.0721 182.688 50.4191 187.711 54.9821 191.465C59.545 195.219 65.1189 197.535 70.9985 198.121C76.8782 198.706 82.7994 197.535 88.0131 194.755C93.2268 191.974 97.4986 187.71 100.288 182.501C103.078 177.292 104.26 171.373 103.685 165.493C103.11 159.612 100.803 154.034 97.0576 149.464C93.3117 144.895 88.2946 141.539 82.6411 139.821C75.0668 137.52 66.8887 138.32 59.9037 142.045C52.9188 145.77 47.6982 152.115 45.3891 159.687ZM99.1431 176.061C97.6262 181.042 94.6663 185.462 90.6376 188.761C86.609 192.059 81.6926 194.09 76.5101 194.594C71.3277 195.099 66.112 194.055 61.5226 191.596C56.9332 189.136 53.1762 185.371 50.7268 180.776C48.2773 176.181 47.2454 170.963 47.7616 165.782C48.2777 160.601 50.3187 155.689 53.6265 151.667C56.9342 147.646 61.3602 144.696 66.3446 143.19C71.3291 141.684 76.6481 141.69 81.6291 143.207C88.3083 145.242 93.9058 149.846 97.1903 156.007C100.475 162.168 101.177 169.382 99.1431 176.061Z" fill="white"/>
<path d="M162.666 196.822C162.438 197.572 162.065 198.269 161.567 198.874C161.069 199.479 160.457 199.98 159.766 200.349C159.075 200.718 158.318 200.947 157.538 201.023C156.758 201.099 155.971 201.02 155.221 200.792L112.32 187.726C111.827 187.575 111.414 187.234 111.171 186.779C110.928 186.323 110.876 185.79 111.025 185.296L113.371 177.596C113.523 177.103 113.864 176.69 114.319 176.448C114.775 176.206 115.308 176.155 115.801 176.306L158.68 189.383C160.194 189.842 161.465 190.883 162.212 192.278C162.96 193.673 163.123 195.307 162.666 196.822Z" fill="#263238"/>
<path opacity="0.3" d="M162.666 196.822C162.438 197.572 162.065 198.269 161.567 198.874C161.069 199.479 160.457 199.98 159.766 200.349C159.075 200.718 158.318 200.947 157.538 201.023C156.758 201.099 155.971 201.02 155.221 200.792L112.32 187.726C111.827 187.575 111.414 187.234 111.171 186.779C110.928 186.323 110.876 185.79 111.025 185.296L113.371 177.596C113.523 177.103 113.864 176.69 114.319 176.448C114.775 176.206 115.308 176.155 115.801 176.306L158.68 189.383C160.194 189.842 161.465 190.883 162.212 192.278C162.96 193.673 163.123 195.307 162.666 196.822Z" fill="white"/>
<path opacity="0.3" d="M162.884 195.832C162.844 196.172 162.772 196.508 162.667 196.833C162.205 198.347 161.16 199.616 159.763 200.36C158.366 201.105 156.731 201.264 155.216 200.803L112.321 187.731C112.077 187.658 111.85 187.538 111.652 187.376C111.455 187.215 111.292 187.016 111.172 186.791C111.052 186.566 110.978 186.32 110.954 186.066C110.929 185.812 110.956 185.556 111.031 185.313L111.62 183.361C111.546 183.606 111.52 183.862 111.545 184.116C111.57 184.37 111.645 184.617 111.765 184.842C111.885 185.068 112.049 185.267 112.246 185.429C112.444 185.59 112.671 185.712 112.916 185.785L155.811 198.851C157.157 199.263 158.605 199.186 159.899 198.633C161.193 198.081 162.25 197.089 162.884 195.832Z" fill="black"/>
<path opacity="0.3" d="M158.33 192.446C159.525 192.808 160.243 193.92 159.937 194.931C159.631 195.943 158.408 196.472 157.218 196.105C156.028 195.738 155.305 194.626 155.611 193.619C155.917 192.613 157.14 192.079 158.33 192.446Z" fill="black"/>
<path opacity="0.4" d="M65.0991 152.498C67.7178 154.283 67.9458 158.514 65.6106 161.95C63.2754 165.386 59.2499 166.715 56.6256 164.93C54.0013 163.145 53.7789 158.914 56.1197 155.478C58.4604 152.042 62.4914 150.713 65.0991 152.498Z" fill="white"/>
<path opacity="0.4" d="M69.2198 163.045C69.7758 163.423 69.8203 164.313 69.3255 165.03C68.8306 165.747 67.9911 166.031 67.4406 165.658C66.8902 165.286 66.8401 164.391 67.335 163.673C67.8298 162.956 68.6694 162.672 69.2198 163.045Z" fill="white"/>
<path d="M216.726 105.866L216.287 110.57L220.407 110.292C220.407 110.292 221.174 107.051 218.911 105.488L216.726 105.866Z" fill="#B97964"/>
<path d="M217.171 112.295L220.601 112.734L220.407 110.293L216.287 110.571L217.171 112.295Z" fill="#B97964"/>
<path d="M220.117 81.7316C220.451 81.9763 220.673 82.1542 220.946 82.3599C221.218 82.5656 221.441 82.7714 221.68 82.9826C222.164 83.4052 222.631 83.8333 223.087 84.2726C223.99 85.1645 224.843 86.1076 225.639 87.097C226.445 88.0924 227.188 89.1379 227.863 90.2273C228.035 90.4998 228.196 90.7833 228.352 91.0613L228.585 91.4839L228.708 91.6952L228.863 91.9954C229.314 92.8781 229.543 93.8569 229.531 94.8477C229.511 95.7241 229.336 96.59 229.013 97.4053C228.734 98.1022 228.382 98.7676 227.963 99.3902C227.206 100.494 226.326 101.507 225.338 102.409C223.488 104.101 221.434 105.554 219.222 106.735C218.92 106.906 218.566 106.958 218.227 106.883C217.889 106.807 217.59 106.609 217.39 106.326C217.189 106.043 217.1 105.695 217.141 105.351C217.182 105.006 217.349 104.689 217.61 104.461L217.666 104.411C219.341 102.929 220.899 101.319 222.325 99.5959C222.975 98.8039 223.545 97.949 224.026 97.0439C224.403 96.4065 224.596 95.677 224.582 94.9366C224.561 94.7362 224.488 94.5447 224.371 94.3806L223.965 93.8246C223.815 93.6078 223.659 93.391 223.487 93.1797C222.841 92.316 222.15 91.4865 221.419 90.6944C220.685 89.8937 219.923 89.1153 219.128 88.3703C218.739 87.9978 218.338 87.6252 217.932 87.2583C217.732 87.0804 217.527 86.908 217.321 86.7412L216.765 86.2686L216.637 86.163C216.08 85.6912 215.728 85.0224 215.653 84.2966C215.579 83.5707 215.788 82.8442 216.237 82.2692C216.686 81.6942 217.341 81.3154 218.063 81.2121C218.785 81.1087 219.52 81.289 220.112 81.715L220.117 81.7316Z" fill="#B97864"/>
<path d="M226.083 85.8511L220.884 92.5231C220.044 92.1009 219.228 91.6294 218.443 91.1109C216.751 90.0807 215.265 88.7439 214.062 87.1689C213.672 86.6694 213.387 86.0962 213.223 85.4838C213.06 84.8714 213.022 84.2324 213.111 83.6049C213.801 80.002 216.286 77.9226 218.443 78.3451C219.922 78.6621 226.083 85.8511 226.083 85.8511Z" fill="#407BFF"/>
<path opacity="0.2" d="M218.445 91.1333C216.752 90.1031 215.266 88.7663 214.064 87.1912C214.942 85.084 215.687 83.4883 215.687 83.4883C217.342 85.708 218.302 88.3684 218.445 91.1333Z" fill="black"/>
<path d="M203.554 64.7003C203.498 64.9783 203.303 65.1729 203.125 65.1339C202.947 65.095 202.842 64.8448 202.897 64.5779C202.953 64.3111 203.148 64.1109 203.331 64.1443C203.515 64.1776 203.609 64.4223 203.554 64.7003Z" fill="#263238"/>
<path d="M203.333 65.1738C202.833 65.9514 202.228 66.6567 201.537 67.27C201.698 67.4433 201.894 67.5793 202.113 67.6687C202.332 67.758 202.568 67.7984 202.804 67.787L203.333 65.1738Z" fill="#A24E3F"/>
<path d="M204.877 63.382C204.897 63.3826 204.918 63.379 204.937 63.3713C204.956 63.3637 204.973 63.3522 204.988 63.3375C205.018 63.3063 205.035 63.2644 205.035 63.2208C205.035 63.1771 205.018 63.1352 204.988 63.104C204.815 62.9049 204.598 62.7503 204.353 62.6535C204.108 62.5567 203.843 62.5205 203.581 62.548C203.559 62.5507 203.538 62.5578 203.519 62.5689C203.5 62.58 203.484 62.5948 203.471 62.6125C203.458 62.6302 203.449 62.6504 203.444 62.6718C203.439 62.6932 203.438 62.7154 203.442 62.737C203.451 62.7792 203.476 62.8165 203.51 62.8421C203.545 62.8677 203.588 62.8797 203.631 62.876C203.839 62.8552 204.048 62.8848 204.242 62.9622C204.435 63.0397 204.607 63.1627 204.743 63.3208C204.759 63.3402 204.78 63.3558 204.803 63.3663C204.826 63.3769 204.851 63.3823 204.877 63.382Z" fill="#263238"/>
<path d="M211.416 68.582C210.915 71.1396 210.415 75.81 212.205 77.5225C212.205 77.5225 211.505 80.1135 206.757 80.1135C201.536 80.1135 204.266 77.5225 204.266 77.5225C207.112 76.8442 207.046 74.7425 206.545 72.7465L211.416 68.582Z" fill="#B97964"/>
<path d="M213.234 77.9948C213.612 77.2886 214.035 76.4769 213.168 76.2211C212.211 75.9376 206.067 75.4205 204.272 75.9487C204.828 76.9328 203.888 78.1727 203.888 78.1727L213.234 77.9948Z" fill="#407BFF"/>
<path d="M212.878 65.9848C211.983 69.3208 211.627 71.339 209.542 72.729C206.44 74.8252 202.57 72.4232 202.447 68.876C202.336 65.679 203.826 60.7417 207.418 60.0689C208.21 59.9135 209.029 59.9635 209.796 60.2142C210.563 60.465 211.254 60.908 211.801 61.5012C212.349 62.0944 212.735 62.8179 212.923 63.6027C213.112 64.3876 213.096 65.2077 212.878 65.9848Z" fill="#B97964"/>
<path opacity="0.2" d="M213.234 77.9948C213.612 77.2886 214.035 76.4769 213.168 76.2211C212.211 75.9376 206.067 75.4205 204.272 75.9487C204.828 76.9328 203.888 78.1727 203.888 78.1727L213.234 77.9948Z" fill="black"/>
<path d="M229.564 196.824C229.578 196.818 229.591 196.808 229.6 196.795C229.609 196.783 229.614 196.767 229.614 196.752C229.613 196.735 229.608 196.719 229.6 196.706C229.591 196.692 229.578 196.681 229.564 196.674C229.514 196.674 228.452 196.212 227.962 196.44C227.91 196.462 227.864 196.496 227.826 196.538C227.789 196.58 227.761 196.63 227.745 196.685C227.718 196.75 227.711 196.821 227.726 196.89C227.741 196.959 227.777 197.021 227.829 197.068C227.963 197.134 228.109 197.171 228.258 197.179C228.407 197.187 228.556 197.164 228.696 197.113C228.996 197.051 229.287 196.954 229.564 196.824ZM229.313 196.757C228.819 196.952 228.124 197.102 227.935 196.941C227.935 196.941 227.862 196.879 227.907 196.729C227.916 196.699 227.931 196.67 227.952 196.646C227.973 196.622 228 196.603 228.029 196.59C228.06 196.573 228.094 196.562 228.129 196.557C228.525 196.532 228.921 196.592 229.291 196.735L229.313 196.757Z" fill="#407BFF"/>
<path d="M229.586 196.783C229.594 196.772 229.598 196.758 229.598 196.744C229.598 196.731 229.594 196.717 229.586 196.706C229.586 196.661 229.28 195.694 228.813 195.46C228.758 195.429 228.696 195.41 228.633 195.404C228.57 195.398 228.506 195.406 228.446 195.427C228.386 195.441 228.332 195.475 228.294 195.523C228.255 195.572 228.235 195.632 228.235 195.694C228.235 196.094 229.091 196.689 229.486 196.806H229.525C229.536 196.807 229.548 196.806 229.558 196.802C229.569 196.799 229.578 196.792 229.586 196.783ZM228.735 195.605C229.036 195.755 229.291 196.305 229.375 196.589C228.963 196.394 228.407 195.927 228.402 195.694C228.402 195.694 228.402 195.621 228.502 195.582H228.535C228.602 195.568 228.673 195.576 228.735 195.605Z" fill="#407BFF"/>
<path d="M203.988 197.579C204.004 197.576 204.019 197.568 204.031 197.556C204.043 197.544 204.051 197.529 204.054 197.513C204.057 197.496 204.054 197.478 204.046 197.463C204.038 197.448 204.025 197.436 204.01 197.429C203.96 197.396 202.737 196.701 202.158 196.873C202.104 196.885 202.053 196.908 202.008 196.94C201.963 196.973 201.925 197.014 201.897 197.062C201.858 197.114 201.837 197.178 201.837 197.243C201.837 197.308 201.858 197.371 201.897 197.424C202.042 197.629 202.453 197.69 202.92 197.69C203.279 197.685 203.636 197.648 203.988 197.579ZM203.715 197.457C203.07 197.551 202.186 197.546 202.047 197.318C202.047 197.29 202.003 197.24 202.047 197.134C202.065 197.105 202.088 197.08 202.116 197.06C202.144 197.04 202.175 197.025 202.209 197.018C202.262 197.011 202.316 197.011 202.37 197.018C202.842 197.076 203.299 197.225 203.715 197.457Z" fill="#407BFF"/>
<path d="M204.021 197.568C204.042 197.548 204.054 197.52 204.054 197.491C204.014 196.995 203.819 196.525 203.498 196.145C203.437 196.089 203.365 196.048 203.286 196.024C203.207 196 203.124 195.994 203.042 196.006C202.814 196.006 202.748 196.139 202.731 196.234C202.67 196.629 203.504 197.385 203.926 197.574H203.96L204.021 197.568ZM203.404 196.267C203.667 196.57 203.828 196.947 203.865 197.346C203.437 197.085 202.87 196.495 202.909 196.234C202.909 196.234 202.909 196.156 203.07 196.139H203.12C203.227 196.146 203.328 196.192 203.404 196.267Z" fill="#407BFF"/>
<path d="M207.806 197.496H204.315L203.97 189.412H207.462L207.806 197.496Z" fill="#B97964"/>
<path d="M233.439 195.883L230.025 196.623L226.6 189.089L230.014 188.35L233.439 195.883Z" fill="#B97964"/>
<path d="M229.698 196.267L233.535 195.438C233.602 195.422 233.672 195.429 233.734 195.46C233.796 195.49 233.846 195.542 233.874 195.605L235.208 198.496C235.24 198.567 235.255 198.643 235.252 198.721C235.25 198.798 235.23 198.874 235.194 198.942C235.159 199.011 235.108 199.07 235.045 199.116C234.983 199.162 234.912 199.193 234.836 199.208C233.496 199.475 232.828 199.536 231.138 199.903C230.104 200.125 227.763 200.698 226.329 201.015C224.894 201.332 224.405 199.947 224.961 199.691C227.469 198.546 228.514 197.54 229.192 196.6C229.315 196.431 229.495 196.313 229.698 196.267Z" fill="#263238"/>
<path d="M204.344 197.096H208.163C208.233 197.096 208.3 197.12 208.355 197.163C208.409 197.207 208.447 197.267 208.464 197.335L209.153 200.437C209.171 200.512 209.171 200.59 209.154 200.665C209.137 200.741 209.103 200.811 209.055 200.871C209.007 200.931 208.945 200.979 208.876 201.012C208.806 201.045 208.73 201.061 208.653 201.06C207.274 201.032 205.289 200.954 203.56 200.954C201.536 200.954 199.79 201.066 197.444 201.066C196.009 201.066 195.609 199.614 196.209 199.481C198.945 198.886 201.174 198.819 203.532 197.368C203.772 197.205 204.053 197.111 204.344 197.096Z" fill="#263238"/>
<path d="M198.895 78.4885C198.895 78.4885 195.175 82.6918 198.684 108.674H217.365C217.493 105.805 215.697 91.8213 218.477 78.3105C216.413 77.9146 214.326 77.6509 212.228 77.521C209.584 77.368 206.933 77.368 204.288 77.521C202.468 77.7044 200.665 78.0278 198.895 78.4885Z" fill="#407BFF"/>
<path opacity="0.2" d="M197.184 90.8435C198.746 89.2033 201.465 85.9229 201.231 83.1651L197.684 82.3145C197.273 85.1378 197.105 87.9914 197.184 90.8435Z" fill="black"/>
<path opacity="0.2" d="M203.97 189.412L204.148 193.582H207.64L207.462 189.412H203.97Z" fill="black"/>
<path opacity="0.2" d="M230.014 188.35L226.6 189.089L228.368 192.97L231.782 192.236L230.014 188.35Z" fill="black"/>
<path d="M205.313 108.676L205.374 109.109C205.424 109.421 205.496 109.893 205.585 110.499C206.252 114.892 208.004 126.379 209.622 135.686C210.283 139.484 210.917 142.914 211.451 145.361C213.836 156.308 226.608 192.526 226.608 192.526L232.863 191.175C232.863 191.175 223.928 161.663 221.926 146.356C220.636 136.476 218.295 116.599 217.578 110.499C217.506 109.893 217.456 109.421 217.417 109.109C217.378 108.798 217.367 108.676 217.367 108.676H205.313Z" fill="#263238"/>
<path d="M225.111 190.44C225.083 190.44 226.278 192.703 226.278 192.703L233.306 191.179L232.717 189.066L225.111 190.44Z" fill="#407BFF"/>
<path opacity="0.3" d="M207.814 118.182C212.401 119.083 211.912 136.169 211.361 144.959C210.044 138.743 208.109 126.789 206.785 118.304C207.104 118.148 207.467 118.105 207.814 118.182Z" fill="black"/>
<path d="M198.583 145.432C198.978 156.508 202.848 192.776 202.848 192.776H208.763C208.763 192.776 208.98 157.153 209.242 146.278C209.308 143.386 209.453 139.667 209.62 135.714C210.037 126.023 210.632 114.836 210.865 110.527C210.893 109.921 210.921 109.448 210.937 109.137C210.954 108.825 210.937 108.703 210.937 108.703H198.711C198.711 108.703 198.711 108.859 198.711 109.137C198.711 109.415 198.711 109.921 198.683 110.527C198.555 116.609 198.266 136.481 198.583 145.432Z" fill="#263238"/>
<path d="M201.708 190.418C201.681 190.418 202.042 192.875 202.042 192.875H209.242L209.437 190.685L201.708 190.418Z" fill="#407BFF"/>
<path d="M198.711 85.7515C197.471 85.429 196.376 85.0565 195.22 84.6673C194.063 84.2781 192.962 83.8333 191.85 83.3551C190.738 82.877 189.626 82.3655 188.548 81.7817C187.441 81.2104 186.368 80.5755 185.334 79.8801C184.817 79.5521 184.266 79.1184 183.749 78.7181C183.232 78.3178 182.765 77.8619 182.32 77.4115C181.431 76.5306 180.606 75.5867 179.852 74.587C178.37 72.6457 177.114 70.5415 176.11 68.3153L178.512 66.8809C179.938 68.5807 181.456 70.2011 183.06 71.7347C184.54 73.2073 186.212 74.4735 188.031 75.4989C189.946 76.5135 191.926 77.4013 193.957 78.1565C194.992 78.5513 196.037 78.9238 197.088 79.2685C198.139 79.6133 199.228 79.9747 200.212 80.286L198.711 85.7515Z" fill="#B97864"/>
<path d="M200.436 86.2836C197.1 89.7308 188.671 85.0326 188.671 85.0326L191.167 76.9316C194.112 77.0205 197.04 77.3929 199.913 78.0436C205.09 79.3169 202.988 83.6537 200.436 86.2836Z" fill="#407BFF"/>
<path d="M179.095 67.7077L176.732 63.6211L173.53 66.2287C173.53 66.2287 174.781 69.3201 177.527 69.2867L179.095 67.7077Z" fill="#B97964"/>
<path d="M175.01 62.7266L171.963 64.3556L173.531 66.2294L176.733 63.6217L175.01 62.7266Z" fill="#B97964"/>
<path opacity="0.6" d="M225.111 190.44C225.083 190.44 226.278 192.703 226.278 192.703L233.306 191.179L232.717 189.066L225.111 190.44Z" fill="#FAFAFA"/>
<path opacity="0.6" d="M201.708 190.418C201.681 190.418 202.042 192.875 202.042 192.875H209.242L209.437 190.685L201.708 190.418Z" fill="#FAFAFA"/>
<path d="M208.587 110.498H215.114V109.108H208.587V110.498Z" fill="black"/>
<path d="M201.67 110.498H207.724V109.108H201.67V110.498Z" fill="black"/>
<path d="M215.686 109.107V110.497H217.577C217.504 109.891 217.454 109.419 217.415 109.107H215.686Z" fill="black"/>
<path d="M198.652 110.497H201.087V109.107H198.679C198.668 109.419 198.663 109.891 198.652 110.497Z" fill="black"/>
<path d="M205.045 65.6904L205.746 63.7277C205.572 63.4855 205.45 63.2093 205.39 62.9172C205.33 62.625 205.331 62.3233 205.395 62.0319C205.254 62.168 205.145 62.3341 205.077 62.5179C205.009 62.7017 204.983 62.8986 205.001 63.0939C205.001 63.0939 203.789 62.4656 204.25 60.7087C203.839 61.0819 203.59 61.6004 203.555 62.1542C203.555 62.1542 202.515 59.9303 205.045 58.6515C207.575 57.3727 210.939 57.8119 213.046 59.0184C213.545 59.2952 213.957 59.7068 214.233 60.2063C214.509 60.7058 214.639 61.2729 214.608 61.8429C214.847 61.9344 215.059 62.0841 215.225 62.2783C215.391 62.4725 215.506 62.705 215.559 62.9549C216.071 64.9398 215.476 69.9438 210.972 72.1456C210.972 72.1456 206.296 71.6563 205.045 65.6904Z" fill="#263238"/>
<path d="M207.186 66.1305C206.959 66.9608 206.462 67.6921 205.774 68.2099C204.868 68.8883 204.189 68.2099 204.251 67.1925C204.312 66.2695 204.857 64.8017 205.858 64.5292C206.858 64.2568 207.448 65.1241 207.186 66.1305Z" fill="#B97964"/>
<g opacity="0.2">
<path d="M210.942 79.0234C211.606 81.2734 211.952 83.6053 211.97 85.9512L211.598 92.9512C211.472 95.279 211.377 97.6105 211.314 99.9457C211.281 101.113 211.253 102.281 211.264 103.449C211.24 104.616 211.288 105.784 211.409 106.946C211.135 104.623 211.031 102.284 211.097 99.9457C211.097 97.605 211.214 95.2698 211.32 92.9401C211.425 90.6105 211.603 88.2697 211.759 85.9456C211.788 84.7821 211.723 83.6181 211.564 82.4651C211.429 81.306 211.221 80.1565 210.942 79.0234Z" fill="black"/>
</g>
</svg>
