<svg width="125" height="125" fill="none" xmlns="http://www.w3.org/2000/svg"><rect width="125" height="125" rx="16" fill="#fff"/><path d="M14 15h2.595v2.595H14V15zm2.595 0h2.594v2.595h-2.594V15zm2.595 0h2.594v2.595h-2.595V15zM21.784 15h2.594v2.595h-2.594V15zm2.594 0h2.595v2.595h-2.595V15zm2.595 0h2.595v2.595h-2.595V15zm2.595 0h2.594v2.595h-2.594V15zm7.783 0h2.595v2.595H37.35V15zm5.189 0h2.595v2.595h-2.594V15zm5.19 0h2.594v2.595H47.73V15zm7.784 0h2.594v2.595h-2.594V15zM58.108 15h2.595v2.595h-2.595V15zm2.595 0h2.594v2.595h-2.594V15zm5.189 0h2.595v2.595h-2.595V15zm5.189 0h2.595v2.595H71.08V15zm5.189 0h2.595v2.595H76.27V15zm5.19 0h2.594v2.595h-2.595V15zm10.378 0h2.594v2.595h-2.594V15zm2.594 0h2.595v2.595h-2.595V15zm2.595 0h2.595v2.595h-2.595V15zm2.595 0h2.594v2.595h-2.594V15zm2.594 0h2.595v2.595h-2.595V15zm2.595 0h2.594v2.595h-2.594V15zm2.594 0H110v2.595h-2.595V15zM14 17.595h2.595v2.594H14v-2.594zm15.568 0h2.594v2.594h-2.594v-2.594zm7.783 0h2.595v2.594H37.35v-2.594zm2.595 0h2.595v2.594h-2.595v-2.594z" fill="#000"/><path d="M42.54 17.595h2.595v2.594h-2.594v-2.594zm5.19 0h2.594v2.594H47.73v-2.594zm2.594 0h2.595v2.594h-2.595v-2.594zm5.19 0h2.594v2.594h-2.594v-2.594zm15.567 0h2.595v2.594H71.08v-2.594zm5.189 0h2.595v2.594H76.27v-2.594zm5.19 0h2.594v2.594h-2.595v-2.594zm5.189 0h2.594v2.594H86.65v-2.594zm5.189 0h2.594v2.594h-2.594v-2.594zm15.567 0H110v2.594h-2.595v-2.594zM14 20.19h2.595v2.594H14v-2.595zm5.19 0h2.594v2.594h-2.595v-2.595z" fill="#000"/><path d="M21.784 20.19h2.594v2.594h-2.594v-2.595zm2.594 0h2.595v2.594h-2.595v-2.595zm5.19 0h2.594v2.594h-2.594v-2.595zm5.189 0h2.594v2.594h-2.594v-2.595zm23.351 0h2.595v2.594h-2.595v-2.595zm2.595 0h2.594v2.594h-2.594v-2.595zm10.378 0h2.595v2.594H71.08v-2.595zm7.784 0h2.594v2.594h-2.594v-2.595zm5.189 0h2.595v2.594h-2.595v-2.595zm7.784 0h2.594v2.594h-2.594v-2.595zm5.189 0h2.595v2.594h-2.595v-2.595zm2.595 0h2.594v2.594h-2.594v-2.595zm2.594 0h2.595v2.594h-2.595v-2.595zm5.189 0H110v2.594h-2.595v-2.595zM14 22.784h2.595v2.594H14v-2.594z" fill="#000"/><path d="M19.19 22.784h2.594v2.594h-2.595v-2.594z" fill="#000"/><path d="M21.784 22.784h2.594v2.594h-2.594v-2.594zm2.594 0h2.595v2.594h-2.595v-2.594zm5.19 0h2.594v2.594h-2.594v-2.594zm5.189 0h2.594v2.594h-2.594v-2.594zm5.189 0h2.595v2.594h-2.595v-2.594zm5.189 0h2.595v2.594h-2.595v-2.594zm10.379 0h2.594v2.594h-2.594v-2.594zm7.783 0h2.595v2.594h-2.595v-2.594zm2.595 0h2.595v2.594h-2.595v-2.594zm5.189 0h2.595v2.594H71.08v-2.594zm2.595 0h2.594v2.594h-2.594v-2.594zm2.594 0h2.595v2.594H76.27v-2.594zm10.379 0h2.594v2.594H86.65v-2.594zm5.189 0h2.594v2.594h-2.594v-2.594zm5.189 0h2.595v2.594h-2.595v-2.594zm2.595 0h2.594v2.594h-2.594v-2.594zm2.594 0h2.595v2.594h-2.595v-2.594zm5.189 0H110v2.594h-2.595v-2.594zM14 25.378h2.595v2.595H14v-2.595zm5.19 0h2.594v2.595h-2.595v-2.595z" fill="#000"/><path d="M21.784 25.378h2.594v2.595h-2.594v-2.595zm2.594 0h2.595v2.595h-2.595v-2.595zm5.19 0h2.594v2.595h-2.594v-2.595zm7.783 0h2.595v2.595H37.35v-2.595zm2.595 0h2.595v2.595h-2.595v-2.595zm5.189 0h2.595v2.595h-2.595v-2.595zm2.595 0h2.594v2.595H47.73v-2.595zm2.594 0h2.595v2.595h-2.595v-2.595zm2.595 0h2.595v2.595h-2.595v-2.595zm5.189 0h2.595v2.595h-2.595v-2.595zm18.162 0h2.595v2.595H76.27v-2.595zm5.19 0h2.594v2.595h-2.595v-2.595zm10.378 0h2.594v2.595h-2.594v-2.595zm5.189 0h2.595v2.595h-2.595v-2.595zm2.595 0h2.594v2.595h-2.594v-2.595zm2.594 0h2.595v2.595h-2.595v-2.595zm5.189 0H110v2.595h-2.595v-2.595zM14 27.973h2.595v2.595H14v-2.595zm15.568 0h2.594v2.595h-2.594v-2.595zm15.567 0h2.595v2.595h-2.595v-2.595zm2.595 0h2.594v2.595H47.73v-2.595zm5.189 0h2.595v2.595h-2.595v-2.595zm7.784 0h2.594v2.595h-2.594v-2.595zm7.784 0h2.594v2.595h-2.594v-2.595z" fill="#000"/><path d="M71.081 27.973h2.595v2.595H71.08v-2.595zm5.189 0h2.595v2.595H76.27v-2.595zm15.568 0h2.594v2.595h-2.594v-2.595zm15.567 0H110v2.595h-2.595v-2.595zM14 30.568h2.595v2.594H14v-2.594zm2.595 0h2.594v2.594h-2.594v-2.594zm2.595 0h2.594v2.594h-2.595v-2.594zM21.784 30.568h2.594v2.594h-2.594v-2.594zm2.594 0h2.595v2.594h-2.595v-2.594zm2.595 0h2.595v2.594h-2.595v-2.594zm2.595 0h2.594v2.594h-2.594v-2.594zm5.189 0h2.594v2.594h-2.594v-2.594zm5.189 0h2.595v2.594h-2.595v-2.594zm5.189 0h2.595v2.594h-2.595v-2.594zm5.189 0h2.595v2.594h-2.595v-2.594zm5.19 0h2.594v2.594h-2.594v-2.594zm5.189 0h2.594v2.594h-2.594v-2.594zm5.189 0h2.595v2.594h-2.595v-2.594zm5.189 0h2.595v2.594H71.08v-2.594zm5.189 0h2.595v2.594H76.27v-2.594zm5.19 0h2.594v2.594h-2.595v-2.594zm5.189 0h2.594v2.594H86.65v-2.594zm5.189 0h2.594v2.594h-2.594v-2.594zm2.594 0h2.595v2.594h-2.595v-2.594zm2.595 0h2.595v2.594h-2.595v-2.594zm2.595 0h2.594v2.594h-2.594v-2.594zm2.594 0h2.595v2.594h-2.595v-2.594zm2.595 0h2.594v2.594h-2.594v-2.594zm2.594 0H110v2.594h-2.595v-2.594zm-70.054 2.594h2.595v2.595H37.35v-2.595zm2.595 0h2.595v2.595h-2.595v-2.595z" fill="#000"/><path d="M42.54 33.162h2.595v2.595h-2.594v-2.595zm5.19 0h2.594v2.595H47.73v-2.595zm5.189 0h2.595v2.595h-2.595v-2.595zm2.595 0h2.594v2.595h-2.594v-2.595zm5.189 0h2.594v2.595h-2.594v-2.595zm5.189 0h2.595v2.595h-2.595v-2.595zm2.595 0h2.594v2.595h-2.594v-2.595zm5.189 0h2.594v2.595h-2.594v-2.595zm5.189 0h2.594v2.595h-2.594v-2.595zm5.189 0h2.595v2.595h-2.595v-2.595zm2.595 0h2.594v2.595H86.65v-2.595zm-64.865 2.595h2.594v2.594h-2.594v-2.594zm2.594 0h2.595v2.594h-2.595v-2.594zm5.19 0h2.594v2.594h-2.594v-2.594zm2.594 0h2.595v2.594h-2.595v-2.594zm7.784 0h2.595v2.594h-2.595v-2.594z" fill="#000"/><path d="M42.54 35.757h2.595v2.594h-2.594v-2.594zm2.595 0h2.595v2.594h-2.595v-2.594zm2.595 0h2.594v2.594H47.73v-2.594zm2.594 0h2.595v2.594h-2.595v-2.594zm2.595 0h2.595v2.594h-2.595v-2.594zm10.378 0h2.595v2.594h-2.595v-2.594zm2.595 0h2.595v2.594h-2.595v-2.594zm7.784 0h2.594v2.594h-2.594v-2.594zm5.189 0h2.594v2.594h-2.594v-2.594zm7.784 0h2.594v2.594H86.65v-2.594zm12.973 0h2.594v2.594h-2.594v-2.594zm2.594 0h2.595v2.594h-2.595v-2.594zm-80.432 2.594h2.594v2.595h-2.594V38.35zm5.189 0h2.595v2.595h-2.595V38.35zm5.189 0h2.595v2.595h-2.595V38.35zm7.784 0h2.595v2.595h-2.595V38.35z" fill="#000"/><path d="M50.324 38.351h2.595v2.595h-2.595V38.35zm10.379 0h2.594v2.595h-2.594V38.35zm5.189 0h2.595v2.595h-2.595V38.35zm7.784 0h2.594v2.595h-2.594V38.35zm2.594 0h2.595v2.595H76.27V38.35zm2.595 0h2.594v2.595h-2.594V38.35zm10.378 0h2.595v2.595h-2.595V38.35zm5.189 0h2.595v2.595h-2.595V38.35zm2.595 0h2.595v2.595h-2.595V38.35zm2.595 0h2.594v2.595h-2.594V38.35zm2.594 0h2.595v2.595h-2.595V38.35zM14 40.946h2.595v2.595H14v-2.595zm5.19 0h2.594v2.595h-2.595v-2.595zm5.188 0h2.595v2.595h-2.595v-2.595zm2.595 0h2.595v2.595h-2.595v-2.595zm2.595 0h2.594v2.595h-2.594v-2.595zm12.972 0h2.595v2.595h-2.594v-2.595zm10.379 0h2.595v2.595h-2.595v-2.595zm7.784 0h2.594v2.595h-2.594v-2.595zm7.784 0h2.594v2.595h-2.594v-2.595zm5.189 0h2.594v2.595h-2.594v-2.595zm2.594 0h2.595v2.595H76.27v-2.595zm2.595 0h2.594v2.595h-2.594v-2.595zm10.378 0h2.595v2.595h-2.595v-2.595zm2.595 0h2.594v2.595h-2.594v-2.595zm7.784 0h2.594v2.595h-2.594v-2.595zm5.189 0h2.594v2.595h-2.594v-2.595zm2.594 0H110v2.595h-2.595v-2.595zm-90.81 2.594h2.594v2.595h-2.594v-2.594z" fill="#000"/><path d="M21.784 43.54h2.594v2.595h-2.594v-2.594zm12.973 0h2.594v2.595h-2.594v-2.594zm5.189 0h2.595v2.595h-2.595v-2.594zm5.189 0h2.595v2.595h-2.595v-2.594zm10.379 0h2.594v2.595h-2.594v-2.594zm12.973 0h2.594v2.595h-2.594v-2.594zm12.973 0h2.594v2.595h-2.595v-2.594zm2.594 0h2.595v2.595h-2.595v-2.594zm5.189 0h2.595v2.595h-2.595v-2.594zm2.595 0h2.594v2.595h-2.594v-2.594zm5.189 0h2.595v2.595h-2.595v-2.594zm5.189 0h2.595v2.595h-2.595v-2.594zm-80.432 2.595h2.594v2.595h-2.594v-2.595zm5.189 0h2.595v2.595h-2.595v-2.595zm2.595 0h2.594v2.595h-2.594v-2.595zm5.189 0h2.594v2.595h-2.594v-2.595z" fill="#000"/><path d="M37.351 46.135h2.595v2.595H37.35v-2.595zm7.784 0h2.595v2.595h-2.595v-2.595zm5.189 0h2.595v2.595h-2.595v-2.595zm2.595 0h2.595v2.595h-2.595v-2.595zm2.595 0h2.594v2.595h-2.594v-2.595zM58.108 46.135h2.595v2.595h-2.595v-2.595zm7.784 0h2.595v2.595h-2.595v-2.595zm20.757 0h2.594v2.595H86.65v-2.595zm5.189 0h2.594v2.595h-2.594v-2.595zm2.594 0h2.595v2.595h-2.595v-2.595zm10.379 0h2.594v2.595h-2.594v-2.595zM16.595 48.73h2.594v2.594h-2.594V48.73zm15.567 0h2.595v2.594h-2.595V48.73zm2.595 0h2.594v2.594h-2.594V48.73z" fill="#000"/><path d="M37.351 48.73h2.595v2.594H37.35V48.73zm2.595 0h2.595v2.594h-2.595V48.73zm5.189 0h2.595v2.594h-2.595V48.73zm31.135 0h2.595v2.594H76.27V48.73zm5.19 0h2.594v2.594h-2.595V48.73zm2.594 0h2.595v2.594h-2.595V48.73zm2.595 0h2.594v2.594H86.65V48.73zm2.594 0h2.595v2.594h-2.595V48.73zm5.189 0h2.595v2.594h-2.595V48.73zm2.595 0h2.595v2.594h-2.595V48.73zm5.189 0h2.595v2.594h-2.595V48.73zM14 51.324h2.595v2.595H14v-2.595zm5.19 0h2.594v2.595h-2.595v-2.595zm5.188 0h2.595v2.595h-2.595v-2.595zm2.595 0h2.595v2.595h-2.595v-2.595zm2.595 0h2.594v2.595h-2.594v-2.595zm5.189 0h2.594v2.595h-2.594v-2.595zm5.189 0h2.595v2.595h-2.595v-2.595z" fill="#000"/><path d="M42.54 51.324h2.595v2.595h-2.594v-2.595zm2.595 0h2.595v2.595h-2.595v-2.595zm31.135 0h2.595v2.595H76.27v-2.595zm2.595 0h2.594v2.595h-2.594v-2.595zm2.595 0h2.594v2.595h-2.595v-2.595zm2.594 0h2.595v2.595h-2.595v-2.595zm5.189 0h2.595v2.595h-2.595v-2.595zm10.379 0h2.594v2.595h-2.594v-2.595zm2.594 0h2.595v2.595h-2.595v-2.595zm2.595 0h2.594v2.595h-2.594v-2.595zm2.594 0H110v2.595h-2.595v-2.595zm-85.621 2.595h2.594v2.595h-2.594v-2.595zm2.594 0h2.595v2.595h-2.595v-2.595zm10.379 0h2.594v2.595h-2.594v-2.595zm10.378 0h2.595v2.595h-2.595v-2.595zm31.135 0h2.595v2.595H76.27v-2.595zm5.19 0h2.594v2.595h-2.595v-2.595zm5.189 0h2.594v2.595H86.65v-2.595zm7.783 0h2.595v2.595h-2.595v-2.595zm2.595 0h2.595v2.595h-2.595v-2.595zm2.595 0h2.594v2.595h-2.594v-2.595zm2.594 0h2.595v2.595h-2.595v-2.595zm5.189 0H110v2.595h-2.595v-2.595zm-90.81 2.595h2.594v2.594h-2.594v-2.594zm2.595 0h2.594v2.594h-2.595v-2.594zm5.188 0h2.595v2.594h-2.595v-2.594zm5.19 0h2.594v2.594h-2.594v-2.594zm5.189 0h2.594v2.594h-2.594v-2.594zm7.783 0h2.595v2.594h-2.594v-2.594zm33.73 0h2.595v2.594H76.27v-2.594zm2.595 0h2.594v2.594h-2.594v-2.594zm5.189 0h2.595v2.594h-2.595v-2.594zm7.784 0h2.594v2.594h-2.594v-2.594zm10.378 0h2.595v2.594h-2.595v-2.594zm5.189 0H110v2.594h-2.595v-2.594zm-80.432 2.594h2.595v2.595h-2.595v-2.595zM37.351 59.108h2.595v2.595H37.35v-2.595zm2.595 0h2.595v2.595h-2.595v-2.595z" fill="#000"/><path d="M42.54 59.108h2.595v2.595h-2.594v-2.595zm2.595 0h2.595v2.595h-2.595v-2.595zm38.919 0h2.595v2.595h-2.595v-2.595zm5.189 0h2.595v2.595h-2.595v-2.595zm12.973 0h2.595v2.595h-2.595v-2.595zm2.595 0h2.594v2.595h-2.594v-2.595zm-88.216 2.595h2.594v2.594h-2.594v-2.594zm5.189 0h2.594v2.594h-2.594v-2.594zm2.594 0h2.595v2.594h-2.595v-2.594zm2.595 0h2.595v2.594h-2.595v-2.594zm2.595 0h2.594v2.594h-2.594v-2.594zm10.378 0h2.595v2.594h-2.595v-2.594zm38.919 0h2.594v2.594h-2.594v-2.594zm2.595 0h2.594v2.594h-2.595v-2.594zm2.594 0h2.595v2.594h-2.595v-2.594zm2.595 0h2.594v2.594H86.65v-2.594zm10.378 0h2.595v2.594h-2.595v-2.594zm5.189 0h2.595v2.594h-2.595v-2.594zm5.189 0H110v2.594h-2.595v-2.594zM14 64.297h2.595v2.595H14v-2.595zm2.595 0h2.594v2.595h-2.594v-2.595zm7.783 0h2.595v2.595h-2.595v-2.595zm7.784 0h2.595v2.595h-2.595v-2.595zm10.378 0h2.595v2.595h-2.594v-2.595zm36.325 0h2.594v2.595h-2.594v-2.595zm5.189 0h2.595v2.595h-2.595v-2.595zm2.595 0h2.594v2.595H86.65v-2.595zm2.594 0h2.595v2.595h-2.595v-2.595zm5.189 0h2.595v2.595h-2.595v-2.595zm2.595 0h2.595v2.595h-2.595v-2.595zm2.595 0h2.594v2.595h-2.594v-2.595zm5.189 0h2.594v2.595h-2.594v-2.595zm-88.216 2.595h2.594v2.595h-2.594v-2.595zm2.595 0h2.594v2.595h-2.595v-2.595zM21.784 66.892h2.594v2.595h-2.594v-2.595zm5.189 0h2.595v2.595h-2.595v-2.595zm2.595 0h2.594v2.595h-2.594v-2.595zm2.594 0h2.595v2.595h-2.595v-2.595zm2.595 0h2.594v2.595h-2.594v-2.595zm41.513 0h2.595v2.595H76.27v-2.595zm10.379 0h2.594v2.595H86.65v-2.595zm5.189 0h2.594v2.595h-2.594v-2.595zm5.189 0h2.595v2.595h-2.595v-2.595zm2.595 0h2.594v2.595h-2.594v-2.595zm5.189 0h2.594v2.595h-2.594v-2.595zm2.594 0H110v2.595h-2.595v-2.595zM14 69.487h2.595v2.594H14v-2.594zm5.19 0h2.594v2.594h-2.595v-2.594z" fill="#000"/><path d="M21.784 69.487h2.594v2.594h-2.594v-2.594zm10.378 0h2.595v2.594h-2.595v-2.594zm7.784 0h2.595v2.594h-2.595v-2.594z" fill="#000"/><path d="M42.54 69.487h2.595v2.594h-2.594v-2.594zm36.325 0h2.594v2.594h-2.594v-2.594zm2.595 0h2.594v2.594h-2.595v-2.594zm2.594 0h2.595v2.594h-2.595v-2.594zm2.595 0h2.594v2.594H86.65v-2.594zm2.594 0h2.595v2.594h-2.595v-2.594zm5.189 0h2.595v2.594h-2.595v-2.594zm2.595 0h2.595v2.594h-2.595v-2.594zm2.595 0h2.594v2.594h-2.594v-2.594zm5.189 0h2.594v2.594h-2.594v-2.594zM19.19 72.081h2.594v2.595h-2.595V72.08zm5.188 0h2.595v2.595h-2.595V72.08zm5.19 0h2.594v2.595h-2.594V72.08zm2.594 0h2.595v2.595h-2.595V72.08zm5.189 0h2.595v2.595H37.35V72.08zm2.595 0h2.595v2.595h-2.595V72.08z" fill="#000"/><path d="M42.54 72.081h2.595v2.595h-2.594V72.08zm2.595 0h2.595v2.595h-2.595V72.08zm31.135 0h2.595v2.595H76.27V72.08zm2.595 0h2.594v2.595h-2.594V72.08zm5.189 0h2.595v2.595h-2.595V72.08zm5.189 0h2.595v2.595h-2.595V72.08zm7.784 0h2.595v2.595h-2.595V72.08zm2.595 0h2.594v2.595h-2.594V72.08zm2.594 0h2.595v2.595h-2.595V72.08zm5.189 0H110v2.595h-2.595V72.08zm-80.432 2.595h2.595v2.594h-2.595v-2.594zm7.784 0h2.594v2.594h-2.594v-2.594z" fill="#000"/><path d="M37.351 74.676h2.595v2.594H37.35v-2.594zm2.595 0h2.595v2.594h-2.595v-2.594zm36.324 0h2.595v2.594H76.27v-2.594zm2.595 0h2.594v2.594h-2.594v-2.594zm5.189 0h2.595v2.594h-2.595v-2.594zm2.595 0h2.594v2.594H86.65v-2.594zm2.594 0h2.595v2.594h-2.595v-2.594zm2.595 0h2.594v2.594h-2.594v-2.594zm2.594 0h2.595v2.594h-2.595v-2.594zm5.19 0h2.594v2.594h-2.594v-2.594zm2.594 0h2.595v2.594h-2.595v-2.594zm2.595 0h2.594v2.594h-2.594v-2.594zM14 77.27h2.595v2.595H14V77.27zm2.595 0h2.594v2.595h-2.594V77.27zm5.189 0h2.594v2.595h-2.594V77.27zm7.784 0h2.594v2.595h-2.594V77.27zm2.594 0h2.595v2.595h-2.595V77.27zm2.595 0h2.594v2.595h-2.594V77.27z" fill="#000"/><path d="M37.351 77.27h2.595v2.595H37.35V77.27zm10.379 0h2.594v2.595H47.73V77.27zm2.594 0h2.595v2.595h-2.595V77.27zm7.784 0h2.595v2.595h-2.595V77.27zm2.595 0h2.594v2.595h-2.594V77.27zM63.297 77.27h2.595v2.595h-2.595V77.27zm2.595 0h2.595v2.595h-2.595V77.27zm7.784 0h2.594v2.595h-2.594V77.27zm2.594 0h2.595v2.595H76.27V77.27zm2.595 0h2.594v2.595h-2.594V77.27zm7.784 0h2.594v2.595H86.65V77.27zm2.594 0h2.595v2.595h-2.595V77.27zm2.595 0h2.594v2.595h-2.594V77.27zm2.594 0h2.595v2.595h-2.595V77.27zm5.19 0h2.594v2.595h-2.594V77.27zm5.189 0h2.594v2.595h-2.594V77.27zM14 79.865h2.595v2.594H14v-2.594zm2.595 0h2.594v2.594h-2.594v-2.594zm2.595 0h2.594v2.594h-2.595v-2.594zm5.188 0h2.595v2.594h-2.595v-2.594zm2.595 0h2.595v2.594h-2.595v-2.594zm7.784 0h2.594v2.594h-2.594v-2.594zm5.189 0h2.595v2.594h-2.595v-2.594z" fill="#000"/><path d="M42.54 79.865h2.595v2.594h-2.594v-2.594zm5.19 0h2.594v2.594H47.73v-2.594zm2.594 0h2.595v2.594h-2.595v-2.594zm15.568 0h2.595v2.594h-2.595v-2.594zm15.568 0h2.594v2.594h-2.595v-2.594zm7.783 0h2.595v2.594h-2.595v-2.594zm7.784 0h2.595v2.594h-2.595v-2.594zm2.595 0h2.594v2.594h-2.594v-2.594zM14 82.46h2.595v2.594H14v-2.595zm2.595 0h2.594v2.594h-2.594v-2.595zm2.595 0h2.594v2.594h-2.595v-2.595zm5.188 0h2.595v2.594h-2.595v-2.595zm2.595 0h2.595v2.594h-2.595v-2.595zm2.595 0h2.594v2.594h-2.594v-2.595zm5.189 0h2.594v2.594h-2.594v-2.595zm5.189 0h2.595v2.594h-2.595v-2.595zm7.784 0h2.594v2.594H47.73v-2.595zm7.784 0h2.594v2.594h-2.594v-2.595zm12.973 0h2.594v2.594h-2.594v-2.595z" fill="#000"/><path d="M71.081 82.46h2.595v2.594H71.08v-2.595zm2.595 0h2.594v2.594h-2.594v-2.595zm2.594 0h2.595v2.594H76.27v-2.595zm5.19 0h2.594v2.594h-2.595v-2.595zm2.594 0h2.595v2.594h-2.595v-2.595zm2.595 0h2.594v2.594H86.65v-2.595zm5.189 0h2.594v2.594h-2.594v-2.595zm2.594 0h2.595v2.594h-2.595v-2.595zm2.595 0h2.595v2.594h-2.595v-2.595zm7.784 0h2.594v2.594h-2.594v-2.595zm2.594 0H110v2.594h-2.595v-2.595zM14 85.054h2.595v2.595H14v-2.595zm5.19 0h2.594v2.595h-2.595v-2.595z" fill="#000"/><path d="M21.784 85.054h2.594v2.595h-2.594v-2.595zm2.594 0h2.595v2.595h-2.595v-2.595zm2.595 0h2.595v2.595h-2.595v-2.595zm5.189 0h2.595v2.595h-2.595v-2.595zm2.595 0h2.594v2.595h-2.594v-2.595z" fill="#000"/><path d="M37.351 85.054h2.595v2.595H37.35v-2.595zm5.189 0h2.595v2.595h-2.594v-2.595zm5.19 0h2.594v2.595H47.73v-2.595zm2.594 0h2.595v2.595h-2.595v-2.595zm12.973 0h2.595v2.595h-2.595v-2.595zm5.19 0h2.594v2.595h-2.594v-2.595zm5.189 0h2.594v2.595h-2.594v-2.595zm12.973 0h2.594v2.595H86.65v-2.595zm2.594 0h2.595v2.595h-2.595v-2.595zm5.189 0h2.595v2.595h-2.595v-2.595zm2.595 0h2.595v2.595h-2.595v-2.595zm2.595 0h2.594v2.595h-2.594v-2.595zm2.594 0h2.595v2.595h-2.595v-2.595zM14 87.649h2.595v2.594H14V87.65zm7.784 0h2.594v2.594h-2.594V87.65zm7.784 0h2.594v2.594h-2.594V87.65zm7.783 0h2.595v2.594H37.35V87.65zm12.973 0h2.595v2.594h-2.595V87.65zm7.784 0h2.595v2.594h-2.595V87.65zm2.595 0h2.594v2.594h-2.594V87.65zM63.297 87.649h2.595v2.594h-2.595V87.65zm2.595 0h2.595v2.594h-2.595V87.65zm2.595 0h2.594v2.594h-2.594V87.65z" fill="#000"/><path d="M71.081 87.649h2.595v2.594H71.08V87.65zm5.189 0h2.595v2.594H76.27V87.65zm2.595 0h2.594v2.594h-2.594V87.65zm7.784 0h2.594v2.594H86.65V87.65zm2.594 0h2.595v2.594h-2.595V87.65zm2.595 0h2.594v2.594h-2.594V87.65zm2.594 0h2.595v2.594h-2.595V87.65zm2.595 0h2.595v2.594h-2.595V87.65zm5.189 0h2.595v2.594h-2.595V87.65zm-67.459 2.594h2.594v2.595h-2.594v-2.595zm5.189 0h2.595v2.595h-2.595v-2.595z" fill="#000"/><path d="M42.54 90.243h2.595v2.595h-2.594v-2.595zm2.595 0h2.595v2.595h-2.595v-2.595zm7.784 0h2.595v2.595h-2.595v-2.595zm2.595 0h2.594v2.595h-2.594v-2.595zm5.189 0h2.594v2.595h-2.594v-2.595zM63.297 90.243h2.595v2.595h-2.595v-2.595zm2.595 0h2.595v2.595h-2.595v-2.595zm5.189 0h2.595v2.595H71.08v-2.595zm7.784 0h2.594v2.595h-2.594v-2.595zm5.189 0h2.595v2.595h-2.595v-2.595zm2.595 0h2.594v2.595H86.65v-2.595zm10.378 0h2.595v2.595h-2.595v-2.595zm2.595 0h2.594v2.595h-2.594v-2.595zm2.594 0h2.595v2.595h-2.595v-2.595zM14 92.838h2.595v2.594H14v-2.594zm2.595 0h2.594v2.594h-2.594v-2.594zm2.595 0h2.594v2.594h-2.595v-2.594zM21.784 92.838h2.594v2.594h-2.594v-2.594zm2.594 0h2.595v2.594h-2.595v-2.594zm2.595 0h2.595v2.594h-2.595v-2.594zm2.595 0h2.594v2.594h-2.594v-2.594zm5.189 0h2.594v2.594h-2.594v-2.594z" fill="#000"/><path d="M37.351 92.838h2.595v2.594H37.35v-2.594zm5.189 0h2.595v2.594h-2.594v-2.594zm2.595 0h2.595v2.594h-2.595v-2.594zm5.189 0h2.595v2.594h-2.595v-2.594zm2.595 0h2.595v2.594h-2.595v-2.594zm7.784 0h2.594v2.594h-2.594v-2.594zM63.297 92.838h2.595v2.594h-2.595v-2.594zm2.595 0h2.595v2.594h-2.595v-2.594zm7.784 0h2.594v2.594h-2.594v-2.594zm2.594 0h2.595v2.594H76.27v-2.594zm2.595 0h2.594v2.594h-2.594v-2.594zm2.595 0h2.594v2.594h-2.595v-2.594zm5.189 0h2.594v2.594H86.65v-2.594zm5.189 0h2.594v2.594h-2.594v-2.594zm5.189 0h2.595v2.594h-2.595v-2.594zm2.595 0h2.594v2.594h-2.594v-2.594zm2.594 0h2.595v2.594h-2.595v-2.594zm5.189 0H110v2.594h-2.595v-2.594zM14 95.432h2.595v2.595H14v-2.595zm15.568 0h2.594v2.595h-2.594v-2.595zm10.378 0h2.595v2.595h-2.595v-2.595zm7.784 0h2.594v2.595H47.73v-2.595zm7.784 0h2.594v2.595h-2.594v-2.595zm10.378 0h2.595v2.595h-2.595v-2.595zm5.189 0h2.595v2.595H71.08v-2.595zm2.595 0h2.594v2.595h-2.594v-2.595zm5.189 0h2.594v2.595h-2.594v-2.595zm5.189 0h2.595v2.595h-2.595v-2.595zm2.595 0h2.594v2.595H86.65v-2.595zm10.378 0h2.595v2.595h-2.595v-2.595zm2.595 0h2.594v2.595h-2.594v-2.595zm5.189 0h2.594v2.595h-2.594v-2.595zM14 98.027h2.595v2.595H14v-2.595zm5.19 0h2.594v2.595h-2.595v-2.595z" fill="#000"/><path d="M21.784 98.027h2.594v2.595h-2.594v-2.595zm2.594 0h2.595v2.595h-2.595v-2.595zm5.19 0h2.594v2.595h-2.594v-2.595zm5.189 0h2.594v2.595h-2.594v-2.595zm5.189 0h2.595v2.595h-2.595v-2.595z" fill="#000"/><path d="M42.54 98.027h2.595v2.595h-2.594v-2.595zm2.595 0h2.595v2.595h-2.595v-2.595zm2.595 0h2.594v2.595H47.73v-2.595zm5.189 0h2.595v2.595h-2.595v-2.595zm2.595 0h2.594v2.595h-2.594v-2.595zm5.189 0h2.594v2.595h-2.594v-2.595zM63.297 98.027h2.595v2.595h-2.595v-2.595zm5.19 0h2.594v2.595h-2.594v-2.595zm12.973 0h2.594v2.595h-2.595v-2.595zm2.594 0h2.595v2.595h-2.595v-2.595zm2.595 0h2.594v2.595H86.65v-2.595zm2.594 0h2.595v2.595h-2.595v-2.595zm2.595 0h2.594v2.595h-2.594v-2.595zm2.594 0h2.595v2.595h-2.595v-2.595zm2.595 0h2.595v2.595h-2.595v-2.595zm10.378 0H110v2.595h-2.595v-2.595zM14 100.622h2.595v2.594H14v-2.594zm5.19 0h2.594v2.594h-2.595v-2.594z" fill="#000"/><path d="M21.784 100.622h2.594v2.594h-2.594v-2.594zm2.594 0h2.595v2.594h-2.595v-2.594zm5.19 0h2.594v2.594h-2.594v-2.594zm5.189 0h2.594v2.594h-2.594v-2.594zm5.189 0h2.595v2.594h-2.595v-2.594z" fill="#000"/><path d="M42.54 100.622h2.595v2.594h-2.594v-2.594zm2.595 0h2.595v2.594h-2.595v-2.594zm5.189 0h2.595v2.594h-2.595v-2.594zm5.19 0h2.594v2.594h-2.594v-2.594zM58.108 100.622h2.595v2.594h-2.595v-2.594zm10.379 0h2.594v2.594h-2.594v-2.594zm7.783 0h2.595v2.594H76.27v-2.594zm2.595 0h2.594v2.594h-2.594v-2.594zm2.595 0h2.594v2.594h-2.595v-2.594zm5.189 0h2.594v2.594H86.65v-2.594zm5.189 0h2.594v2.594h-2.594v-2.594zm7.784 0h2.594v2.594h-2.594v-2.594zM14 103.216h2.595v2.595H14v-2.595zm5.19 0h2.594v2.595h-2.595v-2.595z" fill="#000"/><path d="M21.784 103.216h2.594v2.595h-2.594v-2.595zm2.594 0h2.595v2.595h-2.595v-2.595zm5.19 0h2.594v2.595h-2.594v-2.595zm7.783 0h2.595v2.595H37.35v-2.595zm5.189 0h2.595v2.595h-2.594v-2.595zm5.19 0h2.594v2.595H47.73v-2.595zm5.189 0h2.595v2.595h-2.595v-2.595zm5.189 0h2.595v2.595h-2.595v-2.595zm2.595 0h2.594v2.595h-2.594v-2.595zM63.297 103.216h2.595v2.595h-2.595v-2.595zm2.595 0h2.595v2.595h-2.595v-2.595zm7.784 0h2.594v2.595h-2.594v-2.595zm5.189 0h2.594v2.595h-2.594v-2.595zm5.189 0h2.595v2.595h-2.595v-2.595zm10.378 0h2.595v2.595h-2.595v-2.595zm2.595 0h2.595v2.595h-2.595v-2.595zm7.784 0h2.594v2.595h-2.594v-2.595zm2.594 0H110v2.595h-2.595v-2.595zM14 105.811h2.595v2.594H14v-2.594zm15.568 0h2.594v2.594h-2.594v-2.594zm12.972 0h2.595v2.594h-2.594v-2.594zm2.595 0h2.595v2.594h-2.595v-2.594zm7.784 0h2.595v2.594h-2.595v-2.594zm5.189 0h2.595v2.594h-2.595v-2.594zm2.595 0h2.594v2.594h-2.594v-2.594zm12.973 0h2.594v2.594h-2.594v-2.594zm2.594 0h2.595v2.594H76.27v-2.594zm5.19 0h2.594v2.594h-2.595v-2.594zm12.972 0h2.595v2.594h-2.595v-2.594zm5.19 0h2.594v2.594h-2.594v-2.594zm2.594 0h2.595v2.594h-2.595v-2.594zm2.595 0h2.594v2.594h-2.594v-2.594zm2.594 0H110v2.594h-2.595v-2.594zM14 108.405h2.595V111H14v-2.595zm2.595 0h2.594V111h-2.594v-2.595zm2.595 0h2.594V111h-2.595v-2.595zM21.784 108.405h2.594V111h-2.594v-2.595zm2.594 0h2.595V111h-2.595v-2.595zm2.595 0h2.595V111h-2.595v-2.595zm2.595 0h2.594V111h-2.594v-2.595zm15.567 0h2.595V111h-2.595v-2.595zm2.595 0h2.594V111H47.73v-2.595zm18.162 0h2.595V111h-2.595v-2.595zm5.189 0h2.595V111H71.08v-2.595zm2.595 0h2.594V111h-2.594v-2.595zm7.784 0h2.594V111h-2.595v-2.595zm5.189 0h2.594V111H86.65v-2.595zm12.973 0h2.594V111h-2.594v-2.595zm7.783 0H110V111h-2.595v-2.595z" fill="#000"/><path d="M16.595 15H14v2.595M16.595 15v2.595m0-2.595h2.594m-2.594 2.595H14m2.595 0h2.594m-2.594 0v2.594M14 17.595v2.594M19.19 15v2.595m0-2.595h2.594m-2.595 2.595h2.595m0-2.595v2.595m0-2.595h2.594m-2.594 2.595h2.594m0-2.595v2.595m0-2.595h2.595m-2.595 2.595h2.595m0-2.595v2.595m0-2.595h2.595m-2.595 2.595h2.595m0-2.595v2.595m0-2.595h2.594v2.595m-2.594 0h2.594m-2.594 0v2.594m2.594-2.594v2.594m7.784-2.594V15H37.35v2.595m2.595 0H37.35m2.595 0v2.594m0-2.594h2.595m-5.19 0v2.594m7.784-2.594V15H42.54v2.595m2.594 0H42.54m2.594 0v2.594H42.54m0-2.594v2.594m7.783-2.594V15H47.73v2.595m2.594 0H47.73m2.594 0v2.594m0-2.594h2.595v2.594h-2.595m-2.594-2.594v2.594h2.594M58.108 15h-2.594v2.595M58.108 15v2.595m0-2.595h2.595m-2.595 2.595h-2.594m2.594 0h2.595m-2.595 0v2.594m-2.594-2.594v2.594h2.594M60.703 15v2.595m0-2.595h2.594v2.595h-2.594m12.973 0V15H71.08v2.595m2.595 0H71.08m2.595 0v2.594m-2.595-2.594v2.594m7.784-2.594V15H76.27v2.595m2.595 0H76.27m2.595 0v2.594m-2.595-2.594v2.594h2.595m5.189-2.594V15H81.46v2.595m2.594 0H81.46m2.594 0v2.594m-2.594-2.594v2.594M94.431 15h-2.594v2.595M94.432 15v2.595m0-2.595h2.595m-2.595 2.595h-2.594m2.594 0h2.595m-2.595 0v2.594m-2.594-2.594v2.594M97.027 15v2.595m0-2.595h2.595m-2.595 2.595h2.595m0-2.595v2.595m0-2.595h2.594m-2.594 2.595h2.594m0-2.595v2.595m0-2.595h2.595m-2.595 2.595h2.595m0-2.595v2.595m0-2.595h2.594m-2.594 2.595h2.594m0-2.595v2.595m0-2.595H110v2.595m-2.595 0H110m-2.595 0v2.594M110 17.595v2.594m-93.405 0H14m2.595 0v2.595M14 20.189v2.595m18.162-2.595h-2.594m2.594 0v2.595m-2.594-2.595v2.595m10.378-2.595H37.35m2.595 0h2.595m-5.19 0h-2.594v2.595m2.594-2.595v2.595m20.757-2.595h2.595m-2.595 0v2.595m15.568-2.595H71.08m2.595 0v2.595m-2.595-2.595v2.595m7.784-2.595h2.595m-2.595 0v2.595m5.189-2.595H81.46m2.594 0h2.595m-2.595 0v2.595h2.595m-5.19-2.595v2.595h-2.594m7.784-2.595h2.594v-2.594H86.65v2.594zm0 0v2.595m7.783-2.595h-2.594m2.594 0v2.595m-2.594-2.595v2.595M110 20.189h-2.595m2.595 0v2.595m-2.595-2.595v2.595m-90.81 0H14m2.595 0v2.594M14 22.784v2.594m7.784-5.189h-2.595v2.595m2.595-2.595v2.595m0-2.595h2.594m-2.594 2.595h-2.595m2.595 0h2.594m-2.594 0v2.594m-2.595-2.594v2.594m5.19-5.189v2.595m0-2.595h2.594v2.595m-2.595 0h2.595m-2.595 0v2.594m2.595-2.594v2.594m5.19-2.594h-2.595m2.594 0v2.594m-2.594-2.594v2.594m7.783-2.594h-2.594m2.594 0v2.594m-2.594-2.594v2.594h2.594m23.352-5.189v2.595m0-2.595h2.594v2.595m-2.594 0h-2.595m2.595 0h2.594m-5.189 0h-2.594v2.594m2.594-2.594v2.594m5.19-2.594h2.594m-2.595 0v2.594h2.595m7.784-2.594H71.08m2.595 0v2.594m0-2.594h2.594m-5.189 0v2.594h2.595m5.189-2.594H76.27m2.595 0v2.594m7.784-2.594h2.594v2.594H86.65v-2.594zm7.783 0h-2.594m2.594 0v2.594m-2.594-2.594v2.594m7.784-5.189h-2.595v2.595m2.595-2.595v2.595m0-2.595h2.594m-2.594 2.595h-2.595m2.595 0h2.594m-2.594 0v2.594m-2.595-2.594v2.594m5.189-5.189v2.595m0-2.595h2.595v2.595m-2.595 0h2.595m-2.595 0v2.594m2.595-2.594v2.594M110 22.784h-2.595m2.595 0v2.594m-2.595-2.594v2.594m-90.81 0H14m2.595 0v2.595M14 25.378v2.595m7.784-2.595h-2.595m2.595 0h2.594m-2.594 0v2.595m-2.595-2.595v2.595h2.595m2.594-2.595h2.595m-2.595 0v2.595m2.595-2.595v2.595h-2.595m7.784-2.595h-2.594m2.594 0v2.595m-2.594-2.595v2.595m7.783-2.595h2.595m-2.595 0v2.595h2.595m2.595-2.595v-2.594h-2.595v2.594m2.595 0h-2.595m2.595 0v2.595h-2.595m0-2.595v2.595m7.784-2.595v-2.594h-2.595v2.594m2.595 0h-2.595m2.595 0v2.595m0-2.595h2.594m-5.189 0v2.595m12.973-2.595h-2.594m2.594 0h2.595v2.595m-2.595-2.595v2.595h2.595m-5.19-2.595H52.92m2.595 0v2.595m10.378-5.19v2.595m0-2.594h2.595v2.594h-2.595m7.784 0h2.594m0-2.594v2.594m0 0h2.595m-2.595 0v2.595m2.595-2.595v2.595m15.567-2.595h-2.594m2.594 0v2.595m-2.594-2.595v2.595m7.784-2.595h-2.595m2.595 0h2.594m-2.594 0v2.595m-2.595-2.595v2.595h2.595m2.594-2.595h2.595m-2.595 0v2.595m2.595-2.595v2.595h-2.595M110 25.378h-2.595m2.595 0v2.595m-2.595-2.595v2.595m-90.81 0H14m2.595 0v2.595M14 27.973v2.595m7.784-2.595h2.594m7.784 0h-2.594m2.594 0v2.595m-2.594-2.595v2.595m18.162-2.595h-2.595m2.595 0h2.594m-2.594 0v2.595m-2.595-2.595v2.595m5.19-5.19v2.595m0-2.595h2.594m-2.595 2.595h2.595m-2.595 0v2.595m2.595-5.19v2.595m0 0h2.595m-2.595 0v2.595m2.595-2.595v2.595m5.189-2.595h2.594v2.595m-2.594-2.595v2.595m18.162-2.595H76.27m2.595 0v2.595m-2.595-2.595v2.595m18.162-2.595h-2.594m2.594 0v2.595m-2.594-2.595v2.595m7.784-2.595h2.594m7.784 0h-2.595m2.595 0v2.595m-2.595-2.595v2.595m-90.81 0H14m2.595 0v2.594m0-2.594h2.594m-5.189 0v2.594h2.595m15.567-2.594h-2.594m2.594 0v2.594h-2.594m0-2.594h-2.595m2.595 0v2.594m18.162-2.594h-2.595m2.595 0h2.594m-2.594 0v2.594m-2.595-2.594v2.594m5.19-2.594h2.594m-2.595 0v2.594m5.19-2.594h-2.595m2.595 0h2.594v2.594m-2.594-2.594v2.594m-2.595-2.594v2.594m10.378-2.594h-2.594m2.594 0v2.594m-2.594-2.594v2.594m10.378-5.189h-2.594v2.595m2.594-2.595v2.595m0-2.595h2.595v2.595m-2.595 0h-2.594m2.594 0h2.595m-2.595 0v2.594m-2.594-2.594h-2.595v2.594m2.595-2.594v2.594m5.189-2.594v2.594m5.189-2.594H76.27m2.595 0v2.594m-2.595-2.594v2.594m18.162-2.594h-2.594m2.594 0v2.594m0-2.594h2.595m-5.19 0v2.594h2.595M110 30.568h-2.595m2.595 0v2.594h-2.595m0-2.594h-2.594m2.594 0v2.594m-90.81 0h2.594m0-2.594v2.594m0-2.594h2.595m-2.595 2.594h2.595m0-2.594v2.594m0-2.594h2.594m-2.594 2.594h2.594m0-2.594v2.594m0-2.594h2.595m-2.595 2.594h2.595m0-2.594v2.594m0 0h2.595m7.783 0v-2.594h-2.594v2.594h2.594zm0 0h2.595m-2.595 0v2.595h2.595m2.595-2.595v-2.594h-2.595v2.594m2.595 0h-2.595m2.595 0v2.595m0-2.595h2.594m-5.19 0v2.595m7.785-2.595h-2.595m2.595 0h2.594m-2.594 0v2.595m-2.595-2.595v2.595m7.784-2.595h-2.595m2.595 0h2.595m-2.595 0v2.595m-2.595-2.595v2.595m7.784-2.595h-2.594m2.594 0v2.595h-2.594m0-2.595v2.595m7.783-2.595h-2.594m2.594 0v2.595m-2.594-2.595v2.595h2.594m5.19-2.595h-2.595m2.595 0v2.595m0-2.595h2.594m-5.19 0v2.595m7.785-2.595H71.08m2.595 0h2.594m-2.594 0v2.595m-2.595-2.595v2.595h-2.594m10.378-2.595H76.27m2.595 0h2.595m-2.595 0v2.595m-2.595-2.595v2.595m7.784-2.595v-2.594H81.46v2.594m2.594 0H81.46m2.594 0h2.595m-2.595 0v2.595h2.595m-5.19-2.595v2.595m7.784-2.595v-2.594H86.65v2.594m2.594 0H86.65m2.594 0v2.595m-2.594-2.595v2.595m7.783-2.595h2.595m0-2.594v2.594m0-2.594h2.595m-2.595 2.594h2.595m0-2.594v2.594m0-2.594h2.594m-2.594 2.594h2.594m0-2.594v2.594m0-2.594h2.595m-2.595 2.594h2.595m0-2.594v2.594m0 0h2.594m-67.46 2.595h2.596m-2.595 0v2.594m2.595-2.594h2.594m-2.594 0v2.594m2.594-2.594v2.594m0-2.594h2.595m2.594 0H47.73m2.594 0v2.594m0-2.594h2.595m-5.19 0v2.594m7.785-2.594h-2.595m2.595 0v2.594h-2.595m0-2.594v2.594m10.378-2.594h2.595m-2.595 0v2.594m5.19-2.594h-2.595m2.595 0v2.594m-2.595-2.594v2.594m10.378-2.594h-2.594m2.594 0v2.594m-2.594-2.594v2.594m7.784-2.594h-2.595m2.595 0v2.594m-2.595-2.594v2.594m7.784-2.594h2.594m-2.594 0v2.594h2.594m0-2.594v2.594m-64.865-2.594h-2.594v2.594m2.594-2.594v2.594m0-2.594h2.595v2.594m-2.595 0h-2.594m2.594 0h2.595m-2.595 0v2.595m-2.594-2.595v2.595m5.189-2.595h2.595m-2.595 0v2.595m5.19-5.19h-2.595v2.595m2.594-2.594v2.594m0-2.594h2.595v2.594m-2.595 0h-2.594m2.594 0h2.595m-2.595 0v2.595m-2.594-2.595v2.595m5.189-2.595v2.595h-2.595m10.379-2.595h-2.595m2.595 0h2.594m-2.594 0v2.595m-2.595-2.595v2.595h2.595m2.594-2.595h2.595m0 0h2.594m0 0h2.595m-2.595 0v2.595h2.595m0-2.595v2.595m12.973-2.595h-2.595m2.595 0h2.595m-2.595 0v2.595h2.595m-5.19-2.595h-2.594v2.595m2.594-2.595v2.595m5.19-2.595v2.595m7.783-2.595h-2.594m2.594 0v2.595m0-2.595h2.595m-5.19 0v2.595m7.785-2.595h-2.595m2.595 0v2.595m-2.595-2.595v2.595m10.378-2.595h2.595v2.595m-2.595-2.595v2.595m12.973-5.19h-2.594v2.595m2.594-2.594v2.594m0-2.594h2.595v2.594m-2.595 0h-2.594m2.594 0h2.595m-2.595 0v2.595m-2.594-2.595h-2.595m2.595 0v2.595m5.189-2.595v2.595m-80.433 0h-2.594m2.594 0h2.595m-2.595 0v2.595m-2.594-2.595h-2.595v2.595m2.595-2.595v2.595m7.784-2.595h-2.595m2.595 0v2.595m0-2.595h2.594m-5.189 0v2.595m5.19-2.595v2.595h-2.595m12.973-2.595h2.594v2.595m-2.594-2.595v2.595m10.378-2.595h2.595v2.595m-2.595-2.595v2.595h2.595m7.783-2.595h-2.594m2.594 0v2.595h-2.594v-2.595m7.784 0h2.594v2.595m-2.594-2.595v2.595m7.783-2.595h-2.594m2.594 0h2.595m-2.595 0v2.595m-2.594-2.595v2.595h2.594m2.595-2.595h2.595m-2.595 0v2.595m2.595-2.595v2.595m10.378-2.595h-2.595m2.595 0v2.595m0-2.595h2.594m-5.189 0v2.595m7.784-5.19h-2.595v2.595m2.595-2.595v2.595m0 0h-2.595m2.595 0h2.595m-5.19 0v2.595m5.19-2.595h2.594m-2.594 0v2.595m2.594-2.595h2.595m-2.595 0v2.595m2.595-2.595h2.594m-2.594 0v2.595m-88.216 0v-2.595H14v2.595h2.595zm0 0h2.594m-2.594 0v2.594h2.594v-2.594m2.595 0h-2.595m2.595 0h2.594m-2.594 0v2.594m5.189-2.594h-2.595m2.595 0h2.595m-5.19 0v2.594m20.757-2.594h-2.594m2.594 0h2.595v2.594m-2.595-2.594v2.594m-2.594-2.594h-2.595v2.594m2.595-2.594v2.594h-2.595m15.568-2.594h2.594v2.594m-2.594-2.594v2.594m15.567-2.594h-2.594m2.594 0v2.594h-2.594m0-2.594v2.594m7.783-2.594h2.595m0 0h2.595m0 0h2.594m-2.594 0v2.594h2.594m7.784-2.594h-2.595m2.595 0h2.594m-2.594 0v2.594m-2.595-2.594v2.594m5.19-2.594v2.594m7.783-2.594h-2.594m2.594 0h2.595m-2.595 0v2.594h2.595m-5.19-2.594h-2.594v2.594m2.595-2.594v2.594h-2.595m10.378-5.19v2.596m0-2.595H110v2.595h-2.595m0 0h-2.594m0 0v2.594m-80.433 0h-2.594m2.594 0v2.595h-2.594v-2.595m15.567 0v-2.594h-2.594v2.594m2.594 0h-2.594m2.594 0v2.595m0-2.595h2.595m-5.19 0v2.595m5.19-2.595v2.595m7.784-2.595h-2.595m2.595 0v2.595m-2.595-2.595v2.595m12.973-2.595h-2.594m2.594 0v2.595m0-2.595h2.595v2.595h-2.595m-2.594-2.595h-2.595m2.595 0v2.595m12.973-2.595h-2.595v2.595h2.595v-2.595zm15.567-2.594v2.594m0-2.594h2.595v2.594m-2.595 0h2.595m0 0h2.594m-2.594 0v2.595m5.189-2.595h-2.595m2.595 0h2.594m-2.594 0v2.595m-2.595-2.595v2.595m5.19-2.595v2.595m0-2.595h2.594m0 0v2.595m7.784-2.595h2.594v2.595h-2.594m0-2.595v2.595m-75.243-2.595h-2.595v2.595h2.595m0-2.595v2.595m0-2.595h2.594v2.595m-2.594 0h2.594m0 0h2.595m-2.595 0v2.594m5.19-2.594h-2.595m2.594 0h2.595m-2.595 0v2.594m-2.594-2.594v2.594m5.189-2.594v2.594m0-2.594h2.595v2.594m5.189-2.594h-2.595m2.595 0v2.594m-2.595-2.594v2.594m7.784-5.189h-2.595v2.595h2.595m0-2.595v2.595m0 0h2.595m0 0h2.594m31.135 0H86.65m2.594 0v2.594m0-2.594h2.595m-5.19 0h-2.594m2.595 0v2.594m7.783-2.594h-2.594m2.594 0h2.595m-2.595 0v2.594h2.595m-5.19-2.594v2.594m5.19-2.594v2.594m0-2.594h2.595v2.594m5.189-2.594h-2.595v2.594m2.595-2.594v2.594m-85.622 0V48.73h-2.594v2.594m2.594 0h-2.594m2.594 0h2.595v2.595m-2.595-2.595v2.595h2.595m-5.19-2.595H14v2.595h2.595v-2.595zm18.163 0h-2.595m2.595 0h2.594m-2.594 0v2.595m-2.595-2.595h-2.594m2.594 0v2.595h-2.594m7.783-2.595h2.595m-2.595 0v2.595m2.595-2.595h2.595m-2.595 0v2.595h2.595m0-2.595v2.595m0-2.595h2.594m2.595 0h-2.595m2.595 0v2.595m-2.595-2.595v2.595m33.73-2.595V48.73H76.27v2.594m2.595 0H76.27m2.595 0v2.595m0-2.595h2.595m-5.19 0v2.595m7.784-5.19H81.46v2.595m2.594-2.594v2.594m0 0H81.46m2.594 0h2.595m-2.595 0v2.595m-2.594-2.595v2.595m5.189-2.595h2.594m-2.594 0v2.595m2.594-2.595h2.595m-2.595 0v2.595m2.595-2.595v2.595h-2.595m7.784-2.595h2.595m0 0h2.594m-2.594 0v2.595m5.189-2.595h-2.595m2.595 0v2.595m0-2.595h2.594m-5.189 0v2.595m-80.432 0h2.594m-2.594 0v2.595m5.189-5.19h-2.595v2.595m2.595-2.595v2.595m0-2.595h2.595m-2.595 2.595h-2.595m2.595 0h2.595m-2.595 0v2.595m-2.595-2.595v2.595m5.19-5.19v2.595m7.783 0h-2.594m2.594 0v2.595m-2.594-2.595v2.595m7.784-2.595h2.594m0 0h2.595m-2.595 0v2.595m2.595-2.595v2.595h-2.595m33.73-2.595H76.27m2.595 0h2.595m-2.595 0v2.595m-2.595-2.595v2.595m5.19-2.595h2.594m-2.594 0v2.595m2.594-2.595h2.595m-2.595 0v2.595m2.595-2.595h2.594m-2.594 0v2.595m2.594-2.595v2.595H86.65m15.567-2.595h-2.594m2.594 0h2.595m-2.595 0v2.595m-2.594-2.595h-2.595m2.595 0v2.595m5.189-2.595h2.594m-2.594 0v2.595m2.594-5.19v2.595m0-2.595H110v2.595m-2.595 0H110m-2.595 0v2.595M110 53.919v2.595m-85.622 0h-2.594m2.594 0h2.595m-2.595 0v2.594h2.595m-5.19-2.594H19.19m2.595 0v2.594H19.19m7.784-2.594v2.594m10.378-2.594h-2.594m2.594 0v2.594m-2.594-2.594v2.594h2.594m7.784-2.594h-2.594v2.594m2.594-2.594v2.594m33.73-2.594H76.27m2.595 0v2.594m0-2.594h2.595m-5.19 0v2.594h2.595m5.189-2.594H81.46m2.594 0h2.595m-2.595 0v2.594m-2.594-2.594v2.594h-2.595m7.784-2.594v2.594m10.378-5.19h-2.595v2.596m2.595-2.595v2.595m0 0h-2.595m2.595 0h2.595m-5.19 0h-2.594v2.594m2.594-2.594v2.594h-2.594m7.784-2.594h2.594m0 0h2.595m-2.595 0v2.594m2.595-2.594v2.594M110 56.514h-2.595m2.595 0v2.594h-2.595m0-2.594v2.594m-88.216-2.594h-2.594v2.594h2.594m0-2.594v2.594m7.784 0h2.595m-2.595 0v2.595m2.595-2.595h2.594v-2.594h-2.594v2.594zm0 0v2.595m7.783-2.595h2.595m-2.595 0v2.595h2.595m5.19-2.595H42.54m2.595 0v2.595m0-2.595h2.595v2.595h-2.595m-2.594-2.595h-2.595m2.595 0v2.595m44.108-2.595h-2.595m2.595 0v2.595m-2.595-2.595v2.595m7.784-2.595h-2.595v2.595m2.595-2.595v2.595h-2.595m15.568-2.595h-2.595m2.595 0v2.595m0-2.595h2.594m-5.189 0v2.595m5.189-2.595v2.595m-77.837 0h-2.595m2.595 0v2.594m0-2.594h2.594v2.594m-5.189-2.594h-2.595m2.595 0v2.594m12.973-5.189v2.595m0 0h2.595m-2.595 0v2.594h2.595m0-2.594h2.594m-2.594 0v2.594m44.108-2.594h-2.595m2.595 0v2.594m0-2.594h2.594m-5.189 0H81.46m2.594 0v2.594m5.19-2.594v2.594m15.567-2.594h-2.595m2.595 0h2.594m-2.594 0v2.594m-2.595-2.594v2.594m5.189-2.594H110v2.594h-2.595m0-2.594v2.594m-88.216 0v-2.594h-2.594v2.594m2.594 0h-2.594m2.594 0v2.595m-2.594-2.595H14v2.595h2.595m0-2.595v2.595m7.783-5.19h-2.594v2.595h2.594m0-2.594v2.594m0 0h2.595m-2.595 0v2.595m2.595-2.595h2.595m-2.595 0v2.595m2.595-2.595h2.594m0 0h2.595v2.595m-2.595-2.595v2.595m10.379-2.595h2.594v2.595h-2.594v-2.595zm38.919-2.594h-2.595v2.594m2.595-2.594v2.594m0 0h-2.595m2.595 0h2.594m-2.594 0v2.595h-2.595m0-2.595v2.595m5.189-2.595h2.595m-2.595 0v2.595h2.595m0-2.595h2.594m-2.594 0v2.595m2.594-2.595v2.595m0-2.595h2.595v2.595m7.784-2.595v-2.594h-2.595v2.594m2.595 0h-2.595m2.595 0v2.595m0-2.595h2.594m-5.189 0h-2.595v2.595m2.595-2.595v2.595m7.784-2.595h-2.595m2.595 0h2.594m-2.594 0v2.595m-2.595-2.595v2.595m5.189-2.595v2.595m-90.81 0h2.594m-2.594 0v2.595m2.594-2.595v2.595m0-2.595h2.595m5.189 0h-2.595m2.595 0h2.595m-2.595 0v2.595h2.595m-5.19-2.595h-2.594m2.594 0v2.595m10.379-2.595h-2.595m2.595 0v2.595m0-2.595h2.594v2.595h-2.594m-2.595-2.595h-2.594m2.594 0v2.595m46.703-2.595H76.27v2.595h2.595m0-2.595v2.595m7.784-2.595h2.594m-2.594 0v2.595m2.594-2.595h2.595m-2.595 0v2.595m2.595-2.595h2.594m-2.594 0v2.595m5.189-2.595h-2.595m2.595 0h2.595m-2.595 0v2.595m-2.595-2.595v2.595m5.19-2.595h2.594m-2.594 0v2.595m2.594-2.595v2.595m5.189-2.595h-2.594m2.594 0v2.595m0-2.595H110v2.595h-2.595m-2.594-2.595v2.595m-85.622 0h-2.594m2.594 0h2.595m-2.595 0v2.594m-2.594-2.594H14v2.594h2.595v-2.594zm5.189-2.595v2.595m0 0h2.594m-2.594 0v2.594m2.594-2.594v2.594m5.19-5.19v2.596m0 0h2.594m0 0h2.595m-2.595 0v2.594m2.595-2.594v2.594m44.108-2.594h2.595m-2.595 0v2.594m10.378-2.594H86.65m2.594 0v2.594m0-2.594h2.595m-5.19 0h-2.594m2.595 0v2.594m7.783-2.594h-2.594m2.594 0h2.595m-2.595 0v2.594h2.595m-5.19-2.594v2.594m7.785-2.594h-2.595m2.595 0h2.594m-2.594 0v2.594m-2.595-2.594v2.594m5.189-2.594v2.594m5.189-2.594h-2.594m2.594 0v2.594m-2.594-2.594v2.594m-83.027 0H19.19m2.595 0h2.594m-2.594 0v2.595H19.19V72.08m5.19 0h2.594v2.595m-2.595-2.595v2.595h2.595m7.784-2.595h-2.595m2.595 0v2.595m-2.595-2.595h-2.594v2.595m2.594-2.595v2.595m10.379-5.19h-2.595v2.595m2.595-2.594v2.594m0-2.594h2.594v2.594m-2.594 0h-2.595m2.595 0h2.594m-2.594 0v2.595m-2.595-2.595H37.35v2.595m2.595-2.595v2.595m5.19-2.595v2.595m0-2.595h2.594v2.595h-2.595m36.325-5.19v2.595m0-2.594h2.594M81.46 72.08h-2.595m2.595 0h2.594m-2.594 0v2.595m-2.595-2.595H76.27v2.595m2.595-2.595v2.595m5.189-5.19v2.595m0 0h2.595m-2.595 0v2.595m2.595-2.595h2.594m-2.594 0v2.595m2.594-2.595h2.595m-2.595 0v2.595m2.595-2.595v2.595m5.189-2.595h2.595m-2.595 0v2.595m2.595-2.595h2.594m-2.594 0v2.595m2.594-2.595v2.595m0-2.595h2.595m2.594 0h-2.594m2.594 0H110v2.595h-2.595m0-2.595v2.595m-2.594-2.595v2.595m-77.838 0h2.595m-2.595 0v2.594h2.595m2.594-2.594h-2.594m2.594 0h2.595m-5.19 0v2.594m5.19-2.594h2.594m-2.594 0v2.594m5.189-2.594H37.35m2.595 0h2.595m-2.595 0v2.594m-2.595-2.594v2.594m5.19-2.594h2.594m-2.594 0v2.594h-2.595m38.919-2.594H76.27m2.595 0h2.595m-2.595 0v2.594m-2.595-2.594v2.594m5.19-2.594v2.594m5.189-2.594h-2.595m2.595 0v2.594m0-2.594h2.594m-5.189 0v2.594h2.595m5.189-2.594h-2.595m2.595 0v2.594m0-2.594h2.594m-5.189 0v2.594m10.379-2.594h-2.595m2.595 0h2.594m-2.594 0v2.594m-2.595-2.594h-2.595m2.595 0v2.594m5.189-2.594h2.595m-2.595 0v2.594m2.595-2.594v2.594m0-2.594h2.594m0 0v2.594m-77.837 0h2.594m-2.594 0v2.595m7.783-2.595h-2.594m2.594 0h2.595m-2.595 0v2.595m-2.594-2.595h-2.595m2.595 0v2.595m5.189-2.595v2.595m38.919-2.595H76.27m2.595 0h2.595m-2.595 0v2.595M76.27 77.27h-2.594v2.595h2.594m0-2.595v2.595m5.19-2.595v2.595m5.189-2.595h2.594m-2.594 0v2.595h2.594m0-2.595h2.595m-2.595 0v2.595m2.595-2.595h2.594m-2.594 0v2.595m2.594-5.19v2.595m0 0h2.595m-2.595 0v2.595m2.595-2.595v2.595m5.189-2.595h-2.594m2.594 0h2.595m-2.595 0v2.595m-2.594-2.595v2.595m5.189-2.595h2.594m-2.594 0v2.595h2.594V77.27m-90.81 0H14v2.595m2.595-2.595v2.595m0-2.595h2.594v2.595m-2.594 0H14m2.595 0h2.594m-2.594 0v2.595M14 79.865v2.595m5.19-2.595v2.595m0-2.595h2.594m2.594 0V77.27h-2.594v2.595m2.594 0h-2.594m2.594 0h2.595m-2.595 0v2.595m-2.594-2.595v2.595m10.378-5.19v2.595m0 0h-2.594m2.594 0h2.595m-5.19 0h-2.594m2.595 0v2.595m5.189-2.595h2.594m-2.594 0v2.595m2.594-2.595h2.595m-2.595 0v2.595m2.595-2.595h2.595m-2.595 0v2.595m10.378-5.19H47.73v2.595m2.594-2.595v2.595m0-2.595h2.595v2.595m-2.595 0H47.73m2.594 0h2.595m-2.595 0v2.595m-2.594-2.595v2.595m5.189-2.595v2.595h-2.595m10.379-5.19h-2.595v2.595h2.595m0-2.595v2.595m0-2.595h2.594m-2.594 2.595h2.594m0-2.595v2.595m0-2.595h2.595m-2.595 2.595h2.595m0-2.595v2.595m0-2.595h2.595v2.595m-2.595 0h2.595m-2.595 0v2.595h2.595m0-2.595v2.595m7.783-2.595h2.595m0 0h2.595m0 0h2.594v2.595m-2.594-2.595v2.595m7.783-2.595h2.595m-2.595 0v2.595m2.595-2.595h2.594m-2.594 0v2.595m2.594-2.595h2.595m0 0h2.595m-2.595 0v2.595m5.189-2.595h-2.594m2.594 0v2.595h-2.594m0-2.595v2.595m-83.027 0H14m2.595 0h2.594m-2.594 0v2.594M14 82.46v2.594m5.19-2.594h2.594m-2.595 0v2.594m2.595-2.594v2.594m5.189-5.19v2.596m0 0h-2.595m2.595 0h2.595m-2.595 0v2.594m-2.595-2.594v2.594m5.19-2.594v2.594m0-2.594h2.594v2.594m5.19-2.594h-2.595m2.594 0v2.594m-2.594-2.594v2.594m7.784-5.19v2.596m0-2.595h2.594v2.595h-2.594m0 0h-2.595m2.595 0v2.594m-2.595-2.594v2.594m10.378-2.594H47.73m2.594 0v2.594M47.73 82.46v2.594m20.757-2.594h2.594m-2.594 0v2.594m15.567-2.594H81.46m2.594 0v2.594m0-2.594h2.595m-5.19 0v2.594h2.595m7.784-2.594h-2.595m2.595 0h2.594m-2.594 0v2.594m-2.595-2.594H86.65m2.594 0v2.594m10.379-2.594h-2.595m2.595 0v2.594m-2.595-2.594h-2.595m2.595 0v2.594m-80.432 0H14m2.595 0h2.594m-2.594 0v2.595M14 85.054v2.595m5.19-2.595h2.594m-2.595 0v2.595h2.595m0-2.595v2.595m0-2.595h2.594m2.595 0h-2.595m2.595 0h2.595m-2.595 0v2.595m-2.595-2.595v2.595m5.19-2.595h2.594m-2.594 0v2.595m2.594-2.595h2.595m-2.595 0v2.595m5.19-2.595h-2.595m2.594 0v2.595m0-2.595h2.595m-5.19 0v2.595m7.785-2.595h-2.595m2.595 0h2.594v2.595h-2.594v-2.595zm-2.595 0v2.595m10.378-2.595H47.73m2.594 0v2.595m0-2.595h2.595v2.595m-5.19-2.595v2.595h2.595m20.757-5.19v2.595m0-2.594h2.595m-2.595 2.594h-2.594m2.594 0h2.595m-2.595 0v2.595m-2.594-2.595v2.595m5.189-5.19v2.595m0-2.594h2.594m-2.594 2.594h2.594m-2.594 0v2.595m2.594-5.19v2.595m0-2.594h2.595v2.594H76.27m0 0v2.595m7.784-2.595h2.595m0-2.594v2.594m0 0h2.594m-2.594 0v2.595m2.594-2.595v2.595m0-2.595h2.595m2.594-2.594v2.594m0 0h-2.594m2.594 0h2.595m-2.595 0v2.595m-2.594-2.595v2.595m5.189-2.595h2.595m-2.595 0v2.595m2.595-2.595v2.595m0-2.595h2.594m5.189-2.594h-2.594v2.594m2.594-2.594v2.594m0-2.594H110v2.594h-2.595m0 0h-2.594m0 0h-2.595m2.595 0v2.595m-88.216 0H14m2.595 0v2.594H14V87.65m7.784 0h2.594m-2.594 0v2.594h2.594V87.65m0 0h2.595m0 0h2.595m0 0h2.594m-2.594 0v2.594h2.594V87.65m2.595 0h-2.595m2.595 0h2.594m0 0h2.595m-2.595 0v2.594m2.595-2.594v2.594m10.378-2.594h2.595m-2.595 0v2.594h2.595m0-2.594v2.594m12.973-2.594v-2.595h-2.595v2.595m2.595 0h-2.595m2.595 0v2.594m0-2.594h2.595m-5.19 0h-2.594m2.594 0v2.594m7.784-2.594h-2.594m2.594 0v2.594m0-2.594h2.595m-5.19 0v2.594m7.784-2.594h-2.594m2.594 0h2.595m-2.595 0v2.594h2.595m-5.19-2.594v2.594m15.568-2.594H86.65m2.594 0h2.595m-2.595 0v2.594M86.65 87.65v2.594m5.189-2.594v2.594m0-2.594h2.594m2.595 0h-2.595m2.595 0h2.595m-2.595 0v2.594m-2.595-2.594v2.594m5.19-2.594h2.594m-2.594 0v2.594m2.594-5.189v2.595m0 0h2.595m-2.595 0v2.594m2.595-2.594v2.594m-64.865 0H37.35m2.595 0h2.595m-2.595 0v2.595m-2.595-2.595h-2.594v2.595m2.594-2.595v2.595m15.568-2.595h2.595m-2.595 0v2.595m7.784-5.19h-2.595v2.595m2.595-2.594v2.594m0 0h-2.595m2.595 0h2.594m-2.594 0v2.595m-2.595-2.595h-2.594m2.594 0v2.595h-2.594m7.783-2.595h2.595m-2.595 0v2.595m2.595-2.595h2.595m-2.595 0v2.595m2.595-2.595h2.594m-2.594 0v2.595m2.594-2.595h2.595m-2.595 0v2.595h2.595m0-2.595v2.595m5.189-5.19v2.595m0-2.594h2.595v2.594m-2.595 0h2.595m-2.595 0v2.595m2.595-2.595v2.595m7.783-2.595H86.65m2.594 0h2.595m-2.595 0v2.595m-2.594-2.595h-2.595v2.595m2.595-2.595v2.595m5.189-2.595h2.594m0 0h2.595m0 0h2.595m-2.595 0v2.595m2.595-2.595v2.595m0-2.595h2.594m2.595 0h-2.595m2.595 0v2.595m-2.595-2.595v2.595m-64.865 0h-2.594m2.594 0v2.594m0-2.594h2.595m-5.19 0v2.594h2.595m5.19-5.189v2.595m0-2.595h2.594m-2.594 2.595h-2.595m2.595 0h2.594m-2.594 0v2.594m-2.595-2.594v2.594m5.19-5.189v2.595m0-2.595h2.594v2.595m-2.595 0h2.595m-2.595 0v2.594m2.595-2.594v2.594m7.784-5.189v2.595m0 0H52.92m2.595 0v2.594m-2.595-2.594h-2.595v2.594m2.595-2.594v2.594m10.378-2.594h-2.594m2.594 0h2.595m-2.595 0v2.594m-2.594-2.594v2.594h2.594m2.595-2.594h2.595m-2.595 0v2.594m2.595-2.594v2.594m5.189-2.594h2.594m-2.594 0v2.594m7.784-2.594h-2.595m2.595 0v2.594m0-2.594h2.594m-5.19 0H76.27m2.595 0v2.594m7.784-2.594h-2.595m2.595 0h2.594m-2.594 0v2.594m-2.595-2.594v2.594m5.19-2.594v2.594m10.378-2.594h-2.595m2.595 0h2.594m-2.594 0v2.594m-2.595-2.594v2.594m5.189-2.594h2.595m-2.595 0v2.594m2.595-2.594v2.594m-88.216-2.594H14v2.594m2.595-2.594v2.594m0-2.594h2.594m-2.594 2.594H14m2.595 0h2.594m-2.594 0v2.595M14 95.432v2.595m5.19-5.19v2.595m0-2.594h2.594m-2.595 2.594h2.595m0-2.594v2.594m0-2.594h2.594m-2.594 2.594h2.594m0-2.594v2.594m0-2.594h2.595m-2.595 2.594h2.595m0-2.594v2.594m0-2.594h2.595m-2.595 2.594h2.595m0-2.594v2.594m0-2.594h2.594v2.594m-2.594 0h2.594m-2.594 0v2.595m2.594-2.595v2.595m5.19-2.595h2.594m0 0h2.595m-2.595 0v2.595m5.19-2.595H42.54m2.595 0h2.595m-5.19 0v2.595m5.19-2.595h2.594m-2.594 0v2.595m5.189-2.595h-2.595m2.595 0h2.595m-5.19 0v2.595m5.19-2.595h2.594v2.595m-2.594-2.595v2.595m7.783-2.595h2.595m0 0h2.595m-2.595 0v2.595m2.595-2.595v2.595m7.783-5.19v2.595m0 0h-2.594m2.594 0h2.595m-2.595 0v2.595h-2.594m0-2.595H71.08v2.595m2.595-2.595v2.595m5.189-2.595h2.595m-2.595 0v2.595h2.595m0-2.595h2.594m-2.594 0v2.595m2.594-2.595h2.595m-2.595 0v2.595m5.19-2.595h-2.595m2.594 0v2.595m-2.594-2.595v2.595m12.973-2.595h-2.595m2.595 0h2.594m-2.594 0v2.595m-2.595-2.595v2.595m5.189-2.595h2.595m-2.595 0v2.595h-2.594m5.189-2.595h2.594m-2.594 0v2.595h2.594m0-2.595H110v-2.594h-2.595v2.594zm0 0v2.595m-90.81 0H14m2.595 0v2.595M14 98.027v2.595m18.162-2.595h-2.594m2.594 0v2.595m-2.594-2.595v2.595m12.973-2.595h-2.595m2.595 0v2.595m0-2.595h2.594m-5.19 0v2.595m10.38-2.595H47.73m2.594 0v2.595m-2.594-2.595h-2.595m2.595 0v2.595m10.378-2.595h-2.594m2.594 0v2.595m-2.594-2.595h-2.595v2.595m2.595-2.595v2.595m12.973-2.595h-2.595m2.595 0h2.594m-2.594 0v2.595m-2.595-2.595h-2.595m2.595 0v2.595h-2.595m10.379-2.595H71.08m0 0v2.595m10.379-2.595h2.594m-2.594 0v2.595m5.189-2.595h-2.595m2.595 0h2.594m-2.594 0v2.595m-2.595-2.595v2.595m5.19-2.595v2.595m0-2.595h2.594m7.784 0h-2.595m2.595 0v2.595m-2.595-2.595h-2.595m2.595 0v2.595m10.378-2.595H110v2.595h-2.595v-2.595zm-90.81 2.595H14m2.595 0v2.594M14 100.622v2.594m7.784-5.189h-2.595v2.595m2.595-2.595v2.595m0-2.595h2.594m-2.594 2.595h-2.595m2.595 0h2.594m-2.594 0v2.594m-2.595-2.594v2.594m5.19-5.189v2.595m0-2.595h2.594v2.595m-2.595 0h2.595m-2.595 0v2.594m2.595-2.594v2.594m5.19-2.594h-2.595m2.594 0v2.594m-2.594-2.594v2.594m7.783-2.594v-2.595h-2.594v2.595m2.594 0h-2.594m2.594 0v2.594m-2.594-2.594v2.594h2.594m5.19-2.594h-2.595m2.595 0h2.594m-2.594 0v2.594m-2.595-2.594v2.594m5.19-5.189v2.595m0 0h2.594m-2.595 0v2.594m2.595-2.594h2.594m-2.594 0v2.594m2.594-2.594h2.595m-2.595 0v2.594m5.19-2.594h-2.595m2.595 0h2.594m-2.594 0v2.594m-2.595-2.594v2.594m5.19-2.594v2.594m0-2.594h2.594m2.594-2.595h-2.594v2.595m2.594-2.595v2.595m0 0h-2.594m0 0v2.594m10.378-2.594h-2.594m2.594 0v2.594h-2.594m0-2.594v2.594m15.567-2.594H81.46m2.594 0h2.595m-2.595 0v2.594m-2.594-2.594h-2.595m2.595 0v2.594m5.189-2.594h2.594m-2.594 0v2.594m2.594-2.594h2.595m-2.595 0v2.594H86.65m5.189-5.189v2.595m0-2.595h2.594m-2.594 2.595h2.594m-2.594 0v2.594h2.594m0-5.189v2.595m0 0h2.595m-2.595 0v2.594m2.595-2.594h2.595m0 0h2.594v2.594h-2.594m0-2.594v2.594m-83.027 0H14m2.595 0v2.595M14 103.216v2.595m7.784-2.595h-2.595m2.595 0h2.594m-2.594 0v2.595m-2.595-2.595v2.595h2.595m2.594-2.595h2.595m-2.595 0v2.595m2.595-2.595v2.595h-2.595m7.784-2.595h-2.594m2.594 0v2.595m-2.594-2.595v2.595m7.783-2.595h2.595m-2.595 0v2.595h2.595v-2.595m2.595 0h-2.595m2.595 0h2.594m-2.594 0v2.595m2.594-2.595h2.595m-2.595 0v2.595m2.595-2.595h2.594m-2.594 0v2.595m5.189-2.595h-2.595m2.595 0h2.595m-2.595 0v2.595m-2.595-2.595v2.595H47.73m10.378-2.595h-2.594m2.594 0h2.595m-2.595 0v2.595m-2.594-2.595v2.595m5.189-2.595v2.595m0-2.595h2.594m5.19 0h-2.595m2.595 0v2.595h-2.595m12.973-5.189H76.27v2.594m2.595-2.594v2.594m0 0H76.27m2.595 0h2.595m-2.595 0v2.595m-2.595-2.595h-2.594v2.595m2.594-2.595v2.595m5.19-2.595h2.594m-2.594 0v2.595m2.594-2.595h2.595m-2.595 0v2.595m2.595-2.595v2.595h-2.595m10.378-2.595h2.595m-2.595 0v2.595m5.19-2.595h-2.595m2.595 0v2.595m-83.027 0H14m2.595 0v2.594M14 105.811v2.594m7.784-2.594h2.594m7.784 0h-2.594m2.594 0v2.594m-2.594-2.594v2.594m15.567-2.594h-2.594m2.594 0v2.594m0-2.594h2.595m-5.19 0v2.594h2.595m2.595-2.594v2.594m7.784-2.594h-2.595m2.595 0v2.594h-2.595v-2.594m7.784 0h-2.595m2.595 0h2.594m-2.594 0v2.594m-2.595-2.594v2.594h2.595m2.594-5.189v2.595m0-2.595h2.595m-2.595 2.595h2.595m-2.595 0v2.594h-2.594m5.189-5.189v2.595m10.378 0h-2.594m2.594 0v2.594m0-2.594h2.595m-5.19 0v2.594m7.785-2.594h-2.595m2.595 0h2.594m-2.594 0v2.594m-2.595-2.594v2.594H76.27m7.784-2.594v2.594m12.973-5.189v2.595m0 0h-2.595m2.595 0h2.595m-2.595 0v2.594h-2.595v-2.594m5.19 0h2.594m-2.594 0v2.594m7.783-5.189h-2.594v2.595m2.594-2.595v2.595m0-2.595H110v2.595m-2.595 0h-2.594m2.594 0H110m-2.595 0v2.594m-2.594-2.594h-2.595m2.595 0v2.594m5.189-2.594v2.594m-93.405 0H14m2.595 0V111m0-2.595h2.594m-5.189 0V111h2.595m15.567-2.595h-2.594m2.594 0V111h-2.594m0-2.595h-2.595m2.595 0V111m15.567-2.595h2.595m-2.595 0V111h2.595m0-2.595V111m0-2.595h2.594V111H47.73m28.54-2.595h-2.594m2.594 0V111h-2.594m0-2.595H71.08V111h2.595m0-2.595V111m10.378-2.595H81.46m2.594 0V111H81.46v-2.595m20.756-2.594v2.594m0 0h-2.594m2.594 0h2.595m-2.595 0V111h-2.594v-2.595m5.189 0h2.594m0 0H110m-2.595 0V111H110v-2.595M16.595 111h2.594m0-2.595V111m0-2.595h2.595M19.189 111h2.595m0-2.595V111m0-2.595h2.594M21.784 111h2.594m0-2.595V111m0-2.595h2.595M24.378 111h2.595m0-2.595V111m0 0h2.595m36.324-96h2.595v2.595h-2.595V15zM81.46 25.378h2.594v2.595H81.46v-2.595zM55.514 82.46h2.594v2.594h-2.594V82.46zm36.324 10.378h2.594v2.594h-2.594v-2.594zm-25.946 15.567h2.595V111h-2.595v-2.595zm20.757 0h2.594V111H86.65v-2.595z" stroke="#000" stroke-width=".48"/><path d="M57.59 53c3.488.043 8.324 5.65 10.485 9.521 1.583-1.566 2.46-3.025 2.568-4.083.941.169 1.797.74 1.819 1.756.042 1.312-1.156 3.152-3.167 4.972.898 2.37 1.005 4.337.15 5.247-.386.38-.9.508-1.456.508.064-1.249-.235-2.645-.791-4.084-3.852 2.75-8.581 4.528-11.405 4.4-.942-.041-1.67-.295-2.097-.803a1.534 1.534 0 0 1-.3-1.545c3.959.593 9.394-2.158 12.603-4.57-2.696-4.845-7.468-9.309-10.356-9.309.085-1.206.727-2.03 1.947-2.01z" stroke="#000" stroke-width=".209"/><path d="M66.17 73.375c-3.616 0-8.26-5.205-10.378-8.59-1.476 1.397-3.787 4.21-2.525 5.776-.192-.212-1.968-2.433-2.011-2.518-.835-1.417.428-3.766 2.974-6.114-.898-1.989-1.262-3.406-1.262-4.485 0-2.158 1.374-3.133 2.717-4.21-1.155 1.65.086 4.95.942 6.77 3.36-2.391 8.152-4.422 11.32-4.422 1.198 0 2.118.233 2.845 1.142l1.605 1.99c-2.717-2.307-10.635 1.48-14.187 4.061 2.161 3.364 8.238 10.304 11.448 7.976-.77.868-2.332 2.624-3.488 2.624z" fill="#171720"/></svg>